<?xml version="1.0" encoding="UTF-8"?>
<!-- Generator: visioncortex VTracer 0.6.3 -->
<svg version="1.1" xmlns="http://www.w3.org/2000/svg" width="1280" height="1253">
<path d="M0 0 C422.4 0 844.8 0 1280 0 C1280 413.49 1280 826.98 1280 1253 C857.6 1253 435.2 1253 0 1253 C0 839.51 0 426.02 0 0 Z " fill="#000000" transform="translate(0,0)"/>
<path d="M0 0 C4.79 4 9.31 8.17 13.71 12.59 C14.67 13.55 14.67 13.55 15.65 14.53 C17.79 16.67 19.93 18.81 22.06 20.95 C23.62 22.5 25.17 24.05 26.72 25.61 C30.98 29.86 35.23 34.12 39.49 38.39 C44.08 42.98 48.67 47.58 53.26 52.17 C61.22 60.13 69.17 68.09 77.13 76.05 C88.63 87.57 100.13 99.08 111.64 110.58 C117 115.95 122.36 121.31 127.72 126.67 C128.25 127.21 128.79 127.75 129.34 128.3 C142.11 141.07 154.87 153.84 167.64 166.61 C168.19 167.17 168.75 167.73 169.33 168.31 C177.82 176.81 186.32 185.31 194.81 193.81 C203.88 202.89 212.95 211.96 222.02 221.04 C222.58 221.6 223.13 222.16 223.71 222.73 C236.46 235.49 249.21 248.25 261.97 261.01 C262.5 261.55 263.04 262.08 263.59 262.63 C268.93 267.98 274.28 273.33 279.63 278.68 C291.12 290.18 302.61 301.68 314.11 313.18 C322.48 321.56 330.85 329.94 339.22 338.32 C343.76 342.86 348.3 347.4 352.84 351.95 C356.99 356.1 361.14 360.25 365.29 364.4 C366.79 365.91 368.3 367.42 369.81 368.93 C371.84 370.97 373.88 373 375.92 375.04 C376.51 375.63 377.11 376.23 377.72 376.85 C382.91 382.02 386.01 382.18 393.16 382.32 C394.52 382.35 394.52 382.35 395.91 382.38 C398.82 382.44 401.72 382.5 404.62 382.56 C406.59 382.61 408.56 382.65 410.52 382.69 C415.35 382.8 420.17 382.9 425 383 C425 383.66 425 384.32 425 385 C425.66 385 426.32 385 427 385 C427 392.26 427 399.52 427 407 C421.39 407.33 415.78 407.66 410 408 C415.16 414.25 420.81 419.92 426.56 425.62 C427.96 427.02 427.96 427.02 429.39 428.44 C431.12 430.16 432.86 431.89 434.6 433.62 C437.07 436.07 439.54 438.54 442 441 C442.33 422.19 442.66 403.38 443 384 C447.42 382.9 451.29 382.82 455.81 382.81 C456.59 382.8 457.38 382.79 458.18 382.78 C463.17 382.76 467.28 383.34 472 385 C473 386 473 386 473.08 388.38 C473.06 389.41 473.05 390.44 473.03 391.5 C473.02 392.61 473 393.73 472.99 394.88 C472.96 397.25 472.92 399.62 472.87 401.99 C472.86 403.1 472.85 404.22 472.84 405.37 C472.82 406.4 472.81 407.43 472.79 408.49 C472.74 411.17 472.74 411.17 475 413 C477.87 413.18 480.64 413.23 483.51 413.2 C484.35 413.19 485.19 413.19 486.06 413.19 C488.75 413.18 491.44 413.15 494.12 413.12 C495.95 413.11 497.77 413.11 499.59 413.1 C504.06 413.08 508.53 413.04 513 413 C513.33 403.43 513.66 393.86 514 384 C522.16 381.28 533.58 382.56 542 384 C542.66 384.33 543.32 384.66 544 385 C544.02 396.07 544.04 407.13 544.05 418.2 C544.06 423.33 544.06 428.47 544.08 433.61 C544.09 438.56 544.09 443.52 544.09 448.47 C544.1 450.36 544.1 452.26 544.11 454.15 C544.11 456.8 544.11 459.44 544.11 462.08 C544.12 462.87 544.12 463.67 544.12 464.48 C544.11 469.89 544.11 469.89 543 471 C540.93 471.09 538.85 471.11 536.78 471.1 C535.52 471.09 534.26 471.09 532.96 471.09 C531.62 471.08 530.28 471.07 528.94 471.06 C527.59 471.06 526.25 471.05 524.9 471.05 C521.6 471.04 518.3 471.02 515 471 C513.55 468.11 513.8 465.51 513.72 462.28 C513.7 461.62 513.68 460.96 513.66 460.28 C513.58 457.44 513.52 454.61 513.45 451.78 C513.4 449.72 513.34 447.65 513.28 445.59 C513.25 444.35 513.22 443.11 513.19 441.84 C513.32 439.1 513.32 439.1 512 438 C509.12 437.91 506.26 437.88 503.37 437.9 C502.51 437.9 501.64 437.91 500.75 437.91 C497.98 437.91 495.21 437.92 492.44 437.94 C490.56 437.94 488.69 437.95 486.81 437.95 C482.21 437.96 477.6 437.98 473 438 C473.01 439.45 473.01 439.45 473.02 440.92 C473.03 444.49 473.05 448.05 473.05 451.62 C473.06 453.16 473.07 454.71 473.08 456.25 C473.09 458.47 473.09 460.69 473.1 462.9 C473.1 463.6 473.11 464.29 473.11 465.01 C473.11 466.67 473.06 468.34 473 470 C471.49 471.51 470.09 471.04 467.98 471.06 C461.63 471.73 458.48 475.51 454.25 479.97 C453.07 481.17 453.07 481.17 451.86 482.39 C449.37 484.93 446.9 487.49 444.44 490.06 C442.75 491.79 441.05 493.52 439.36 495.25 C435.22 499.48 431.1 503.73 427 508 C423 506.51 420.99 505.23 418.25 501.94 C400.73 480.74 400.73 480.74 376 471.12 C360.69 472.55 350.84 483.29 340.88 493.81 C338.95 495.82 337.01 497.82 335.07 499.82 C333.88 501.05 332.69 502.29 331.52 503.53 C327.59 507.63 325.03 509.73 319.25 510.5 C309.16 510.11 300.5 497.86 294 491 C292.17 488.97 290.39 486.92 288.62 484.84 C281.59 476.18 281.59 476.18 272.07 471.66 C270.96 471.68 269.85 471.69 268.7 471.71 C267.5 471.72 266.29 471.73 265.05 471.74 C263.8 471.76 262.54 471.79 261.25 471.81 C259.35 471.83 259.35 471.83 257.4 471.85 C254.27 471.89 251.13 471.94 248 472 C248.43 472.43 248.87 472.86 249.32 473.3 C253.83 477.77 258.34 482.25 262.84 486.73 C264.53 488.41 266.21 490.08 267.9 491.74 C270.32 494.14 272.73 496.55 275.15 498.95 C275.9 499.7 276.66 500.44 277.44 501.21 C278.14 501.91 278.84 502.61 279.56 503.33 C280.18 503.95 280.79 504.56 281.43 505.19 C283.03 507.03 284.02 508.78 285 511 C269.37 527.71 269.37 527.71 261.87 535.1 C260.01 536.99 258.28 538.93 256.56 540.94 C252.31 545.89 247.65 550.42 243 555 C242.2 555.8 241.39 556.61 240.56 557.44 C238.76 559.24 236.95 561.04 235.13 562.83 C230.16 567.75 225.31 572.68 220.77 578.01 C217.8 581.34 214.58 584.43 211.41 587.56 C209.35 589.65 207.4 591.77 205.5 594 C202.8 597.15 199.95 600.08 197 603 C194.11 605.86 191.32 608.72 188.69 611.81 C185.48 615.57 182.01 619.03 178.5 622.5 C175.05 625.91 171.64 629.3 168.5 633 C164.88 637.28 160.89 641.17 156.88 645.08 C154.06 647.86 151.38 650.68 148.81 653.7 C145.87 657.1 142.76 660.3 139.57 663.46 C139.08 663.94 138.59 664.42 138.09 664.92 C136.08 666.9 134.07 668.88 132.05 670.86 C126.2 676.59 120.67 682.36 115.71 688.9 C114.03 690.96 112.29 692.62 110.25 694.31 C105.96 697.88 102.31 701.9 98.57 706.02 C95.36 709.54 92.08 712.96 88.69 716.31 C85.23 719.73 82 723.24 78.84 726.94 C75.85 730.29 72.61 733.4 69.41 736.55 C67.3 738.7 65.32 740.89 63.38 743.19 C56.02 751.68 47.47 758.4 36 760 C18.9 761.04 6.84 759.02 -6.25 747.5 C-11.38 742.86 -15.06 738.51 -17.69 732.06 C-18.1 731.06 -18.52 730.06 -18.95 729.04 C-23.46 716.01 -20.16 703.22 -14.7 691.11 C-10.55 683.5 -3.71 677.41 2.87 671.88 C5.53 669.53 8.01 667.02 10.5 664.5 C14.19 660.76 17.98 657.22 21.97 653.81 C25.24 650.9 28.26 647.76 31.31 644.62 C33.31 642.67 35.31 640.87 37.44 639.06 C43.97 633.4 49.93 627.14 56 621 C70.19 606.65 70.19 606.65 76.37 601.41 C78.89 599.24 81.18 596.88 83.5 594.5 C87.19 590.76 90.98 587.22 94.97 583.81 C97.41 581.63 99.7 579.33 102 577 C104.86 574.11 107.72 571.32 110.81 568.69 C115.14 564.99 119.11 560.95 123.08 556.88 C125.83 554.09 128.62 551.44 131.61 548.9 C135.27 545.74 138.68 542.38 142.08 538.95 C142.9 538.12 142.9 538.12 143.73 537.28 C145.99 534.99 148.25 532.7 150.5 530.4 C156.81 523.98 163.13 517.97 170.19 512.36 C175.88 507.58 180.99 502.18 186.19 496.88 C188.43 494.6 190.67 492.32 192.92 490.05 C193.45 489.52 193.98 488.98 194.53 488.43 C198.03 484.91 201.62 481.56 205.41 478.37 C207.74 476.37 209.86 474.2 212 472 C211.36 471.88 210.72 471.75 210.06 471.62 C209.38 471.42 208.7 471.21 208 471 C206.63 468.26 206.87 466.06 206.86 462.99 C206.85 461.1 206.85 461.1 206.84 459.17 C206.83 458.15 206.83 458.15 206.83 457.12 C206.82 455 206.81 452.88 206.79 450.76 C206.74 444.74 206.69 438.71 206.67 432.69 C206.66 429 206.63 425.32 206.59 421.63 C206.58 420.23 206.58 418.83 206.58 417.43 C206.58 415.46 206.56 413.49 206.53 411.52 C206.52 410.41 206.52 409.29 206.51 408.14 C205.27 400.55 198.21 393.78 192.48 388.95 C187.11 384.3 182.12 379.27 177.11 374.25 C176.03 373.18 174.96 372.11 173.88 371.04 C170.99 368.15 168.1 365.26 165.21 362.37 C163.4 360.56 161.59 358.76 159.77 356.95 C153.44 350.62 147.11 344.3 140.78 337.97 C134.9 332.09 129.02 326.22 123.13 320.34 C118.06 315.28 112.99 310.22 107.93 305.16 C104.91 302.14 101.89 299.12 98.87 296.11 C96.02 293.28 93.18 290.44 90.35 287.59 C89.31 286.56 88.28 285.52 87.24 284.49 C81.91 279.19 76.89 273.89 72.4 267.86 C70.49 265.33 68.36 263.05 66.19 260.75 C60.71 254.79 55.8 248.5 51 242 C50.39 241.17 50.39 241.17 49.77 240.33 C40.23 227.38 31.45 213.93 23.66 199.86 C22.13 197.08 22.13 197.08 20.47 195.05 C18.46 192.25 17.3 189.17 16 186 C15.38 184.59 14.76 183.18 14.13 181.77 C13.81 181.03 13.48 180.3 13.15 179.54 C12.81 178.79 12.47 178.03 12.12 177.25 C11.77 176.45 11.42 175.66 11.05 174.83 C9.2 170.66 7.31 166.51 5.38 162.38 C1.32 153.46 -2.7 144.07 -4.52 134.42 C-5.03 131.83 -5.69 129.3 -6.36 126.74 C-8.23 119.56 -9.79 112.35 -11.19 105.06 C-11.35 104.2 -11.52 103.34 -11.69 102.45 C-17.93 69.13 -15.98 30.4 0 0 Z " fill="#D99737" transform="translate(307,229)"/>
<path d="M0 0 C4.51 3.71 8.24 7.91 9.71 13.65 C10.1 20.17 8.65 24.49 4.71 29.65 C2.53 32.09 0.23 34.38 -2.1 36.68 C-2.79 37.36 -3.47 38.04 -4.18 38.75 C-6.46 41.03 -8.76 43.31 -11.05 45.58 C-12.7 47.22 -14.34 48.86 -15.99 50.5 C-19.53 54.02 -23.07 57.54 -26.61 61.06 C-31.74 66.16 -36.87 71.27 -41.99 76.38 C-50.32 84.68 -58.65 92.98 -66.98 101.28 C-67.48 101.77 -67.98 102.27 -68.49 102.78 C-75.56 109.82 -82.63 116.85 -89.7 123.88 C-90.44 124.62 -90.44 124.62 -91.2 125.37 C-91.7 125.87 -92.2 126.36 -92.71 126.87 C-101.01 135.13 -109.31 143.39 -117.6 151.66 C-123.15 157.21 -128.72 162.74 -134.29 168.27 C-137.77 171.72 -141.23 175.18 -144.7 178.64 C-146.3 180.24 -147.9 181.83 -149.51 183.42 C-161.24 194.98 -161.24 194.98 -170.29 208.65 C-170.93 209.84 -170.93 209.84 -171.58 211.06 C-176.26 220.12 -176.04 230.01 -173.29 239.65 C-171.52 244.13 -169.22 247.85 -166.29 251.65 C-166.29 252.31 -166.29 252.97 -166.29 253.65 C-165.45 254.06 -165.45 254.06 -164.59 254.47 C-162.14 255.73 -159.82 257.14 -157.48 258.59 C-147.11 264.85 -137.7 267.28 -125.6 264.9 C-108.84 260.49 -96.69 244.18 -84.88 232.29 C-83.26 230.66 -81.64 229.04 -80.02 227.42 C-76.56 223.94 -73.1 220.47 -69.65 216.99 C-64.18 211.5 -58.71 206.01 -53.23 200.52 C-51.35 198.63 -49.47 196.75 -47.59 194.87 C-47.12 194.4 -46.66 193.92 -46.17 193.44 C-40.85 188.11 -35.54 182.77 -30.22 177.44 C-29.73 176.95 -29.25 176.46 -28.75 175.96 C-20.86 168.05 -12.98 160.13 -5.1 152.21 C3 144.06 11.12 135.92 19.24 127.78 C23.8 123.22 28.35 118.66 32.89 114.08 C37.15 109.79 41.42 105.51 45.7 101.23 C47.26 99.66 48.83 98.09 50.39 96.51 C52.52 94.36 54.66 92.22 56.81 90.08 C57.42 89.45 58.04 88.83 58.67 88.18 C62.69 84.21 66.09 82.11 71.84 81.39 C77.29 81.43 81.53 81.71 85.79 85.51 C90.4 90.33 92.96 93.99 93.71 100.65 C93.4 109.67 87.91 114.74 81.85 120.74 C81.17 121.43 80.48 122.12 79.77 122.83 C77.46 125.13 75.15 127.42 72.84 129.72 C71.18 131.37 69.53 133.03 67.87 134.68 C64.31 138.24 60.74 141.79 57.17 145.34 C52.01 150.48 46.85 155.63 41.69 160.78 C33.31 169.15 24.92 177.51 16.53 185.87 C16.03 186.37 15.53 186.87 15.01 187.39 C10.95 191.44 6.88 195.49 2.81 199.55 C-0.74 203.09 -4.3 206.63 -7.85 210.17 C-8.35 210.67 -8.85 211.17 -9.37 211.69 C-17.72 220.01 -26.07 228.34 -34.42 236.68 C-40.02 242.27 -45.63 247.85 -51.24 253.43 C-54.73 256.91 -58.21 260.39 -61.7 263.88 C-63.32 265.49 -64.93 267.1 -66.55 268.7 C-68.77 270.9 -70.97 273.11 -73.18 275.31 C-73.82 275.94 -74.45 276.58 -75.11 277.22 C-85 287.16 -90.73 297.01 -91.46 311.31 C-91.03 319.85 -87.8 327.5 -83.29 334.65 C-82.96 335.64 -82.63 336.63 -82.29 337.65 C-80.98 338.37 -79.64 339.03 -78.29 339.65 C-77.4 340.27 -76.5 340.89 -75.58 341.53 C-65.71 348.28 -56.27 350.55 -44.16 349.28 C-29.1 345.78 -18.77 333.8 -8.35 323.2 C-6.69 321.53 -5.03 319.86 -3.36 318.19 C0.2 314.62 3.75 311.03 7.29 307.45 C12.43 302.25 17.58 297.07 22.73 291.89 C31.11 283.48 39.47 275.06 47.83 266.64 C48.58 265.88 48.58 265.88 49.34 265.11 C52.88 261.54 56.42 257.97 59.96 254.4 C64.01 250.32 68.06 246.23 72.11 242.15 C72.86 241.39 72.86 241.39 73.63 240.62 C81.96 232.22 90.31 223.83 98.66 215.44 C104.25 209.82 109.84 204.19 115.41 198.54 C118.88 195.04 122.36 191.54 125.84 188.05 C127.45 186.43 129.06 184.8 130.66 183.18 C132.85 180.95 135.05 178.74 137.26 176.53 C137.89 175.89 138.52 175.24 139.16 174.58 C144.15 169.65 149.58 166.43 156.53 165.12 C162.15 165.2 166.39 165.87 170.71 169.65 C174.82 174.34 176.85 178.47 177.15 184.78 C177.21 185.67 177.27 186.56 177.33 187.47 C175.76 195.5 168.99 201.81 163.36 207.39 C162.65 208.11 161.93 208.83 161.19 209.58 C158.8 211.98 156.4 214.37 154 216.76 C152.28 218.49 150.56 220.22 148.84 221.95 C144.66 226.15 140.47 230.34 136.28 234.52 C132.87 237.93 129.46 241.34 126.05 244.75 C125.56 245.24 125.08 245.73 124.58 246.23 C123.59 247.22 122.6 248.21 121.61 249.2 C112.36 258.47 103.09 267.73 93.82 276.99 C85.37 285.43 76.92 293.89 68.49 302.35 C59.8 311.06 51.11 319.76 42.4 328.46 C37.53 333.33 32.65 338.21 27.79 343.09 C23.21 347.69 18.62 352.27 14.02 356.85 C12.34 358.53 10.67 360.2 8.99 361.89 C-12.43 383.44 -34.56 398.78 -65.96 398.95 C-67.41 398.96 -68.86 398.98 -70.31 399.01 C-84.12 399.29 -97.08 397.53 -109.29 390.65 C-110.38 390.24 -111.48 389.83 -112.6 389.4 C-119.86 386.36 -126.03 380.66 -132.16 375.84 C-137.53 371.3 -137.53 371.3 -144.1 369.53 C-152.39 372.45 -158.81 381.01 -164.91 387.14 C-166.35 388.59 -167.8 390.03 -169.24 391.47 C-173.93 396.16 -178.49 400.91 -182.8 405.95 C-184.85 408.3 -187.05 410.48 -189.29 412.65 C-192.97 416.29 -196.45 420.03 -199.82 423.96 C-201.55 425.95 -203.38 427.82 -205.29 429.65 C-208.91 428.12 -211.21 425.97 -213.97 423.2 C-214.89 422.28 -215.81 421.36 -216.76 420.41 C-217.75 419.41 -218.75 418.4 -219.74 417.39 C-220.77 416.37 -221.79 415.34 -222.82 414.31 C-225.51 411.61 -228.2 408.9 -230.89 406.19 C-233.63 403.43 -236.38 400.67 -239.13 397.91 C-244.52 392.49 -249.91 387.08 -255.29 381.65 C-252.94 378.05 -250.88 375 -247.54 372.28 C-244.63 369.83 -241.89 367.31 -239.23 364.59 C-236.31 361.64 -233.32 358.88 -230.15 356.21 C-222.96 350.18 -216.16 343.8 -209.49 337.2 C-208.39 336.12 -207.29 335.04 -206.18 333.97 C-204.56 332.41 -202.96 330.83 -201.36 329.24 C-200.86 328.77 -200.37 328.3 -199.86 327.81 C-196.65 324.58 -195.54 322.19 -195.29 317.65 C-196.49 312.78 -199.69 309.07 -203.04 305.46 C-215.33 292.15 -224.65 271.95 -225.29 253.65 C-225.31 253.03 -225.34 252.4 -225.37 251.76 C-226.43 222.71 -216.71 197.99 -197.29 176.65 C-191.71 170.74 -185.93 165.01 -180.18 159.27 C-178.47 157.56 -176.77 155.85 -175.07 154.14 C-170.95 150.01 -166.82 145.88 -162.7 141.76 C-159.34 138.4 -155.99 135.05 -152.64 131.7 C-152.16 131.22 -151.68 130.74 -151.19 130.24 C-150.21 129.27 -149.24 128.29 -148.26 127.31 C-139.16 118.2 -130.06 109.1 -120.95 100 C-112.63 91.68 -104.31 83.35 -96 75.02 C-87.44 66.45 -78.88 57.88 -70.31 49.31 C-65.51 44.51 -60.71 39.71 -55.92 34.9 C-51.42 30.39 -46.91 25.88 -42.39 21.38 C-40.74 19.73 -39.09 18.07 -37.44 16.42 C-35.19 14.16 -32.93 11.9 -30.66 9.65 C-30.01 9 -29.36 8.34 -28.7 7.66 C-21 0.05 -10.62 -6.25 0 0 Z " fill="#D99737" transform="translate(922.2890625,179.34765625)"/>
<path d="M0 0 C1.17 -0.01 1.17 -0.01 2.36 -0.01 C4.93 -0.02 7.51 -0.02 10.09 -0.02 C11.87 -0.03 13.66 -0.03 15.44 -0.03 C19.19 -0.04 22.94 -0.04 26.68 -0.04 C31.49 -0.04 36.3 -0.05 41.11 -0.07 C44.8 -0.08 48.49 -0.08 52.17 -0.08 C53.95 -0.08 55.72 -0.09 57.49 -0.1 C59.97 -0.11 62.45 -0.1 64.92 -0.1 C65.66 -0.1 66.4 -0.11 67.16 -0.11 C72.23 -0.08 72.23 -0.08 74.46 2.15 C74.69 4.39 74.69 4.39 74.66 7.15 C74.65 8.14 74.64 9.13 74.64 10.14 C74.62 11.17 74.6 12.21 74.59 13.27 C74.58 14.31 74.57 15.35 74.56 16.42 C74.53 19 74.5 21.57 74.46 24.15 C67.84 25 61.41 25.28 54.74 25.24 C53.26 25.24 53.26 25.24 51.75 25.24 C48.63 25.23 45.52 25.22 42.4 25.21 C40.27 25.2 38.14 25.2 36.02 25.19 C30.83 25.18 25.65 25.17 20.46 25.15 C20.79 26.47 21.12 27.79 21.46 29.15 C22.41 29.16 22.41 29.16 23.38 29.17 C29.97 29.26 36.56 29.36 43.14 29.46 C45.6 29.5 48.06 29.54 50.52 29.57 C54.05 29.61 57.58 29.67 61.11 29.73 C62.21 29.74 63.32 29.75 64.46 29.77 C65.48 29.79 66.5 29.81 67.55 29.83 C68.45 29.84 69.36 29.85 70.28 29.87 C72.46 30.15 72.46 30.15 74.46 32.15 C74.69 34.39 74.69 34.39 74.66 37.15 C74.65 38.14 74.64 39.13 74.64 40.14 C74.62 41.17 74.6 42.21 74.59 43.27 C74.58 44.31 74.57 45.35 74.56 46.42 C74.53 49 74.5 51.57 74.46 54.15 C72.16 55.3 70.88 55.26 68.32 55.24 C67.47 55.24 66.61 55.24 65.73 55.23 C64.8 55.22 63.88 55.22 62.92 55.21 C61.49 55.2 61.49 55.2 60.03 55.2 C55.94 55.18 51.85 55.15 47.75 55.12 C44.77 55.11 41.78 55.09 38.8 55.08 C37.88 55.07 36.97 55.07 36.02 55.06 C30.74 55.04 25.69 55.37 20.46 56.15 C20.79 58.46 21.12 60.77 21.46 63.15 C22.41 63.16 22.41 63.16 23.38 63.17 C29.97 63.26 36.56 63.36 43.14 63.46 C45.6 63.5 48.06 63.54 50.52 63.57 C54.05 63.61 57.58 63.67 61.11 63.73 C62.21 63.74 63.32 63.75 64.46 63.77 C65.48 63.79 66.5 63.81 67.55 63.83 C68.45 63.84 69.36 63.85 70.28 63.87 C72.46 64.15 72.46 64.15 74.46 66.15 C74.7 68.28 74.7 68.28 74.69 70.9 C74.69 71.84 74.69 72.77 74.69 73.74 C74.67 74.72 74.66 75.7 74.65 76.71 C74.65 77.69 74.65 78.68 74.65 79.69 C74.6 87.01 74.6 87.01 73.46 88.15 C70.36 88.31 67.28 88.4 64.18 88.46 C63.24 88.48 62.31 88.5 61.36 88.52 C58.37 88.59 55.38 88.65 52.4 88.71 C50.38 88.75 48.36 88.79 46.34 88.84 C41.38 88.95 36.42 89.05 31.46 89.15 C31.89 89.57 32.33 90 32.78 90.45 C37.29 94.92 41.8 99.4 46.3 103.88 C47.99 105.55 49.67 107.22 51.36 108.89 C53.78 111.29 56.19 113.69 58.61 116.1 C59.74 117.22 59.74 117.22 60.9 118.36 C61.6 119.06 62.3 119.76 63.02 120.48 C63.64 121.09 64.26 121.7 64.89 122.34 C66.49 124.18 67.48 125.92 68.46 128.15 C52.83 144.86 52.83 144.86 45.33 152.25 C43.48 154.13 41.74 156.08 40.02 158.08 C35.77 163.04 31.11 167.57 26.46 172.15 C25.66 172.95 24.85 173.75 24.02 174.58 C22.22 176.39 20.41 178.19 18.59 179.98 C13.62 184.9 8.77 189.82 4.23 195.15 C1.27 198.49 -1.96 201.57 -5.13 204.71 C-7.19 206.8 -9.13 208.92 -11.04 211.15 C-13.74 214.3 -16.59 217.23 -19.54 220.15 C-22.43 223 -25.22 225.86 -27.85 228.96 C-31.06 232.72 -34.53 236.17 -38.04 239.65 C-41.49 243.06 -44.9 246.44 -48.04 250.15 C-51.66 254.42 -55.65 258.31 -59.66 262.23 C-62.48 265 -65.16 267.83 -67.73 270.84 C-70.67 274.24 -73.78 277.45 -76.97 280.61 C-77.46 281.09 -77.94 281.57 -78.44 282.06 C-80.46 284.05 -82.47 286.03 -84.49 288 C-90.34 293.73 -95.87 299.5 -100.83 306.04 C-102.51 308.11 -104.25 309.76 -106.29 311.46 C-110.58 315.02 -114.23 319.05 -117.96 323.16 C-121.17 326.69 -124.46 330.11 -127.85 333.46 C-131.31 336.87 -134.54 340.39 -137.7 344.08 C-140.69 347.43 -143.93 350.54 -147.12 353.7 C-149.24 355.84 -151.22 358.03 -153.16 360.33 C-160.52 368.82 -169.07 375.54 -180.54 377.15 C-197.64 378.19 -209.69 376.17 -222.79 364.65 C-227.92 360 -231.6 355.65 -234.23 349.21 C-234.64 348.21 -235.06 347.21 -235.49 346.18 C-240 333.16 -236.7 320.37 -231.23 308.25 C-227.08 300.65 -220.25 294.55 -213.67 289.02 C-211.01 286.68 -208.53 284.17 -206.04 281.65 C-202.35 277.9 -198.56 274.36 -194.57 270.95 C-191.3 268.04 -188.28 264.9 -185.23 261.77 C-183.22 259.81 -181.23 258.01 -179.1 256.21 C-172.57 250.55 -166.61 244.28 -160.54 238.15 C-146.35 223.8 -146.35 223.8 -140.17 218.56 C-137.65 216.38 -135.36 214.03 -133.04 211.65 C-129.35 207.9 -125.56 204.36 -121.57 200.95 C-119.12 198.78 -116.84 196.47 -114.54 194.15 C-111.68 191.26 -108.82 188.46 -105.73 185.83 C-101.4 182.14 -97.43 178.1 -93.46 174.03 C-90.71 171.24 -87.92 168.58 -84.93 166.04 C-81.27 162.88 -77.86 159.53 -74.46 156.09 C-73.64 155.27 -73.64 155.27 -72.81 154.42 C-70.55 152.14 -68.29 149.84 -66.04 147.55 C-59.73 141.13 -53.41 135.11 -46.35 129.51 C-40.66 124.73 -35.55 119.32 -30.35 114.02 C-28.11 111.74 -25.87 109.47 -23.62 107.2 C-22.82 106.39 -22.82 106.39 -22.01 105.57 C-18.51 102.06 -14.92 98.71 -11.13 95.51 C-8.8 93.51 -6.68 91.35 -4.54 89.15 C-5.5 88.96 -5.5 88.96 -6.48 88.77 C-7.5 88.46 -7.5 88.46 -8.54 88.15 C-9.9 85.42 -9.71 83.21 -9.76 80.16 C-9.78 78.9 -9.81 77.64 -9.83 76.34 C-9.85 74.96 -9.87 73.57 -9.89 72.18 C-9.91 70.75 -9.94 69.32 -9.96 67.89 C-10.01 64.87 -10.05 61.86 -10.1 58.84 C-10.14 55.78 -10.19 52.72 -10.24 49.67 C-10.53 33.47 -10.81 17.32 -9.54 1.15 C-6.5 -0.38 -3.34 -0 0 0 Z " fill="#D99737" transform="translate(523.5390625,611.854736328125)"/>
<path d="M0 0 C2.38 0.97 3.67 2.09 5.49 3.9 C6.15 4.56 6.82 5.22 7.51 5.89 C8.24 6.63 8.96 7.36 9.71 8.11 C10.49 8.88 11.26 9.65 12.06 10.45 C14.68 13.04 17.28 15.65 19.88 18.26 C21.75 20.12 23.62 21.98 25.48 23.83 C30.04 28.37 34.59 32.91 39.13 37.46 C42.83 41.16 46.53 44.85 50.23 48.55 C51.3 49.61 52.37 50.68 53.43 51.74 C53.96 52.27 54.49 52.8 55.04 53.35 C65.09 63.38 75.13 73.42 85.17 83.46 C94.33 92.63 103.5 101.78 112.68 110.93 C122.12 120.33 131.55 129.75 140.97 139.17 C146.25 144.46 151.54 149.74 156.84 155.01 C161.35 159.5 165.86 164.01 170.35 168.52 C172.64 170.82 174.94 173.11 177.24 175.4 C200.49 198.48 200.49 198.48 205.04 213.83 C205.22 214.4 205.4 214.97 205.58 215.56 C207.37 224.53 206.76 234.5 203.04 242.83 C202.67 243.95 202.29 245.06 201.91 246.21 C196.89 257.4 186.9 265.5 175.85 270.21 C163.61 274.65 150.69 273.66 138.7 268.91 C124.4 261.81 112.62 246.55 101.51 235.42 C99.66 233.57 97.82 231.73 95.98 229.89 C92.03 225.94 88.08 221.99 84.14 218.04 C78.43 212.33 72.73 206.62 67.02 200.91 C57.76 191.64 48.5 182.38 39.24 173.11 C30.25 164.11 21.26 155.12 12.27 146.12 C11.72 145.57 11.16 145.01 10.59 144.44 C7.8 141.65 5.02 138.86 2.23 136.07 C-20.84 113 -43.9 89.92 -66.96 66.83 C-65.05 62.67 -62.22 59.79 -59.02 56.58 C-58.41 55.96 -57.8 55.35 -57.17 54.71 C-55.16 52.68 -53.15 50.65 -51.13 48.62 C-49.73 47.22 -48.33 45.81 -46.93 44.4 C-43.99 41.45 -41.06 38.5 -38.12 35.56 C-34.34 31.78 -30.58 27.98 -26.83 24.19 C-23.95 21.27 -21.05 18.37 -18.15 15.47 C-16.76 14.07 -15.37 12.67 -13.99 11.27 C-12.06 9.31 -10.12 7.37 -8.17 5.44 C-7.6 4.85 -7.03 4.27 -6.44 3.66 C-2.49 -0.21 -2.49 -0.21 0 0 Z " fill="#DA9837" transform="translate(788.9630821347237,711.1680367588997)"/>
<path d="M0 0 C1.77 0.04 3.54 0.09 5.32 0.14 C6.25 0.17 7.18 0.19 8.14 0.21 C11.12 0.29 14.11 0.38 17.09 0.46 C19.11 0.51 21.13 0.57 23.15 0.62 C28.11 0.75 33.07 0.88 38.03 1.02 C38.03 1.68 38.03 2.34 38.03 3.02 C38.69 3.02 39.35 3.02 40.03 3.02 C40.03 10.28 40.03 17.54 40.03 25.02 C31.62 25.52 31.62 25.52 23.03 26.02 C28.19 32.27 33.84 37.94 39.59 43.65 C40.53 44.57 41.46 45.5 42.42 46.46 C44.16 48.19 45.89 49.91 47.63 51.64 C50.1 54.09 52.57 56.56 55.03 59.02 C55.36 40.21 55.69 21.4 56.03 2.02 C60.45 0.92 64.32 0.84 68.84 0.83 C70.02 0.82 70.02 0.82 71.21 0.8 C76.2 0.78 80.31 1.36 85.03 3.02 C86.03 4.02 86.03 4.02 86.11 6.4 C86.09 7.43 86.08 8.46 86.06 9.52 C86.05 10.63 86.03 11.75 86.02 12.9 C85.99 15.27 85.95 17.64 85.9 20.01 C85.89 21.68 85.89 21.68 85.87 23.39 C85.85 24.42 85.84 25.45 85.82 26.52 C85.77 29.2 85.77 29.2 88.03 31.02 C90.9 31.2 93.67 31.25 96.54 31.22 C97.8 31.21 97.8 31.21 99.09 31.21 C101.78 31.2 104.47 31.17 107.16 31.15 C108.98 31.14 110.8 31.13 112.62 31.12 C117.09 31.1 121.56 31.06 126.03 31.02 C126.36 21.45 126.69 11.88 127.03 2.02 C135.19 -0.7 146.61 0.59 155.03 2.02 C156.02 2.52 156.02 2.52 157.03 3.02 C157.05 14.09 157.07 25.15 157.08 36.22 C157.09 41.36 157.1 46.49 157.11 51.63 C157.12 56.58 157.12 61.54 157.13 66.49 C157.13 68.39 157.13 70.28 157.14 72.17 C157.14 74.82 157.14 77.46 157.14 80.11 C157.15 80.9 157.15 81.69 157.16 82.5 C157.15 87.91 157.15 87.91 156.03 89.02 C153.96 89.11 151.88 89.13 149.81 89.12 C148.55 89.12 147.29 89.11 145.99 89.11 C144.65 89.1 143.31 89.09 141.97 89.08 C140.62 89.08 139.28 89.07 137.94 89.07 C134.63 89.06 131.33 89.04 128.03 89.02 C126.58 86.13 126.83 83.53 126.75 80.3 C126.73 79.64 126.71 78.98 126.69 78.3 C126.62 75.47 126.55 72.64 126.48 69.8 C126.43 67.74 126.37 65.68 126.31 63.61 C126.28 62.37 126.25 61.13 126.22 59.86 C126.35 57.12 126.35 57.12 125.03 56.02 C122.15 55.93 119.29 55.91 116.4 55.92 C115.54 55.93 114.67 55.93 113.78 55.93 C111.01 55.93 108.24 55.95 105.47 55.96 C103.59 55.96 101.72 55.97 99.85 55.97 C95.24 55.98 90.64 56 86.03 56.02 C86.04 56.99 86.04 57.95 86.05 58.94 C86.06 62.51 86.08 66.07 86.09 69.64 C86.09 71.18 86.1 72.73 86.11 74.27 C86.12 76.49 86.12 78.71 86.13 80.92 C86.13 81.62 86.14 82.31 86.14 83.03 C86.14 84.69 86.09 86.36 86.03 88.02 C84.52 89.53 83.12 89.06 81.02 89.09 C74.66 89.75 71.51 93.53 67.28 97.99 C66.1 99.19 66.1 99.19 64.89 100.41 C62.4 102.95 59.93 105.52 57.47 108.08 C55.78 109.82 54.08 111.55 52.39 113.27 C48.25 117.5 44.13 121.75 40.03 126.02 C36.04 124.53 34.02 123.26 31.28 119.96 C14.51 99.44 14.51 99.44 -8.95 89.66 C-12.52 89.59 -16.07 89.77 -19.64 89.95 C-23.9 90.08 -28.15 89.82 -32.41 89.58 C-33.23 89.54 -34.05 89.5 -34.9 89.46 C-40.72 89.15 -40.72 89.15 -42.97 88.02 C-43.06 84.75 -43.11 81.48 -43.16 78.21 C-43.18 77.28 -43.21 76.35 -43.23 75.39 C-43.24 74.5 -43.25 73.61 -43.26 72.69 C-43.28 71.87 -43.29 71.05 -43.31 70.2 C-42.88 67.44 -42.15 66.73 -39.97 65.02 C-37.81 64.63 -37.81 64.63 -35.29 64.61 C-34.34 64.59 -33.39 64.57 -32.41 64.56 C-30.88 64.55 -30.88 64.55 -29.32 64.55 C-28.26 64.53 -27.21 64.51 -26.13 64.5 C-22.76 64.45 -19.4 64.42 -16.03 64.4 C-12.67 64.36 -9.31 64.32 -5.94 64.27 C-3.85 64.25 -1.76 64.23 0.34 64.21 C1.76 64.2 1.76 64.2 3.22 64.18 C4.05 64.17 4.89 64.17 5.75 64.16 C7.96 64.03 9.9 63.64 12.03 63.02 C11.54 60.05 11.54 60.05 11.03 57.02 C10.38 57 9.72 56.98 9.05 56.96 C-30.01 55.72 -30.01 55.72 -39.91 45.21 C-43.94 38.98 -45.75 33.13 -44.66 25.71 C-42.69 18.1 -39.25 10.58 -32.5 6.2 C-24.43 2.43 -15.63 0.43 -6.73 0.98 C-6.15 0.99 -5.57 1.01 -4.97 1.02 C-3.97 0.02 -3.97 0.02 0 0 Z " fill="#F7F5F1" transform="translate(693.968994140625,610.978271484375)"/>
<path d="M0 0 C1.62 -0.01 1.62 -0.01 3.27 -0.02 C5.54 -0.03 7.8 -0.03 10.07 -0.04 C13.49 -0.05 16.92 -0.08 20.34 -0.11 C52.37 -0.27 52.37 -0.27 61.99 8.91 C62.45 9.46 62.91 10.01 63.39 10.58 C64.09 11.39 64.09 11.39 64.8 12.23 C69.8 19.31 70.13 25.74 69.2 34.2 C68.12 37.09 66.72 39.5 65.2 42.2 C65.28 45.45 66.11 47.04 67.73 49.85 C69.43 53.74 69.64 57.04 69.57 61.2 C69.59 61.89 69.6 62.57 69.61 63.28 C69.57 70.09 67.25 74.58 62.51 79.33 C55.68 85.91 48.91 88.32 39.53 88.35 C38.54 88.35 38.54 88.35 37.53 88.36 C35.36 88.37 33.18 88.37 31 88.37 C29.49 88.37 27.98 88.38 26.46 88.38 C23.29 88.39 20.12 88.39 16.95 88.39 C12.89 88.39 8.82 88.4 4.75 88.42 C1.63 88.43 -1.49 88.43 -4.62 88.43 C-6.12 88.43 -7.62 88.44 -9.12 88.45 C-11.21 88.45 -13.3 88.45 -15.4 88.45 C-17.18 88.45 -17.18 88.45 -19.01 88.45 C-21.8 88.2 -21.8 88.2 -23.8 86.2 C-23.99 83.49 -24.05 80.88 -24.03 78.17 C-24.03 77.34 -24.03 76.51 -24.03 75.66 C-24.03 72.91 -24.01 70.16 -24 67.41 C-23.99 65.51 -23.99 63.61 -23.99 61.71 C-23.98 56.69 -23.96 51.68 -23.94 46.66 C-23.92 41.55 -23.91 36.43 -23.9 31.32 C-23.88 21.28 -23.84 11.24 -23.8 1.2 C-15.85 0.44 -7.98 0.03 0 0 Z " fill="#F7F5F1" transform="translate(343.80078125,611.796875)"/>
<path d="M0 0 C1.15 -0.01 2.31 -0.02 3.49 -0.03 C5.37 -0.03 5.37 -0.03 7.28 -0.03 C8.57 -0.03 9.86 -0.03 11.2 -0.04 C13.94 -0.05 16.68 -0.05 19.43 -0.04 C22.9 -0.04 26.37 -0.05 29.84 -0.08 C33.2 -0.09 36.55 -0.09 39.91 -0.09 C41.13 -0.1 42.36 -0.11 43.62 -0.12 C54.65 -0.06 66.31 0.44 75.39 7.27 C79.56 11.65 83.11 16.28 84.39 22.27 C84.79 24.07 84.79 24.07 85.2 25.9 C85.96 33.19 83.84 40.75 79.64 46.71 C76.63 50.31 73.4 52.85 69.39 55.27 C68.4 55.27 67.41 55.27 66.39 55.27 C67.78 61.69 70.75 66.45 74.33 71.9 C75.4 73.56 76.47 75.22 77.54 76.88 C78.04 77.64 78.54 78.41 79.05 79.2 C83.39 85.92 83.39 85.92 83.39 88.27 C79.35 88.37 75.31 88.45 71.27 88.49 C69.9 88.51 68.53 88.54 67.16 88.58 C65.18 88.63 63.2 88.65 61.22 88.67 C60.03 88.69 58.84 88.71 57.62 88.73 C53.69 88.18 52.16 87.07 49.39 84.27 C47.86 82.05 47.86 82.05 46.6 79.65 C46.13 78.78 45.67 77.91 45.19 77.01 C44.72 76.11 44.25 75.2 43.76 74.27 C42.82 72.48 41.87 70.69 40.91 68.9 C40.5 68.11 40.09 67.32 39.66 66.5 C38.42 64.22 38.42 64.22 36.73 62.11 C35.39 60.27 35.39 60.27 35.39 58.27 C31.1 58.27 26.81 58.27 22.39 58.27 C22.4 60.36 22.41 62.44 22.42 64.58 C22.43 66.59 22.44 68.6 22.44 70.61 C22.45 72.01 22.46 73.41 22.47 74.81 C22.48 76.82 22.48 78.83 22.49 80.83 C22.5 82.65 22.5 82.65 22.5 84.5 C22.39 87.27 22.39 87.27 21.39 88.27 C16.75 88.53 12.1 88.46 7.45 88.46 C6.14 88.47 4.82 88.49 3.47 88.5 C2.22 88.5 0.97 88.5 -0.33 88.51 C-2.06 88.51 -2.06 88.51 -3.83 88.52 C-6.61 88.27 -6.61 88.27 -8.61 86.27 C-8.81 83.61 -8.89 81.04 -8.89 78.37 C-8.89 77.14 -8.89 77.14 -8.9 75.89 C-8.91 73.19 -8.91 70.48 -8.91 67.77 C-8.92 65.9 -8.92 64.02 -8.92 62.15 C-8.93 58.21 -8.93 54.28 -8.93 50.34 C-8.92 45.29 -8.94 40.24 -8.96 35.19 C-8.98 31.32 -8.98 27.44 -8.97 23.57 C-8.97 21.71 -8.98 19.84 -8.99 17.98 C-9 15.38 -8.99 12.78 -8.98 10.18 C-8.99 9.41 -9 8.63 -9.01 7.83 C-8.98 5.69 -8.98 5.69 -8.61 2.27 C-5.21 0.01 -4 0.02 0 0 Z " fill="#F7F5F1" transform="translate(977.6103515625,611.725341796875)"/>
<path d="M0 0 C1.17 -0.01 1.17 -0.01 2.36 -0.01 C4.93 -0.02 7.51 -0.02 10.09 -0.02 C11.87 -0.03 13.66 -0.03 15.44 -0.03 C19.19 -0.04 22.94 -0.04 26.68 -0.04 C31.49 -0.04 36.3 -0.05 41.11 -0.07 C44.8 -0.08 48.49 -0.08 52.17 -0.08 C53.95 -0.08 55.72 -0.09 57.49 -0.1 C59.97 -0.11 62.45 -0.1 64.92 -0.1 C65.66 -0.1 66.4 -0.11 67.16 -0.11 C72.23 -0.08 72.23 -0.08 74.46 2.15 C74.69 4.39 74.69 4.39 74.66 7.15 C74.65 8.14 74.64 9.13 74.64 10.14 C74.61 11.69 74.61 11.69 74.59 13.27 C74.58 14.31 74.57 15.35 74.56 16.42 C74.53 19 74.5 21.57 74.46 24.15 C67.84 25 61.41 25.28 54.74 25.24 C53.75 25.24 52.77 25.24 51.75 25.24 C48.63 25.23 45.52 25.22 42.4 25.21 C40.27 25.2 38.14 25.2 36.02 25.19 C30.83 25.18 25.65 25.17 20.46 25.15 C20.79 26.47 21.12 27.79 21.46 29.15 C22.41 29.16 22.41 29.16 23.38 29.17 C29.97 29.26 36.56 29.36 43.14 29.46 C45.6 29.5 48.06 29.54 50.52 29.57 C54.05 29.61 57.58 29.67 61.11 29.73 C62.21 29.74 63.32 29.75 64.46 29.77 C65.48 29.79 66.5 29.81 67.55 29.83 C68.45 29.84 69.36 29.85 70.28 29.87 C72.46 30.15 72.46 30.15 74.46 32.15 C74.69 34.39 74.69 34.39 74.66 37.15 C74.65 38.14 74.64 39.13 74.64 40.14 C74.61 41.69 74.61 41.69 74.59 43.27 C74.58 44.31 74.57 45.35 74.56 46.42 C74.53 49 74.5 51.57 74.46 54.15 C72.16 55.3 70.88 55.26 68.32 55.24 C67.47 55.24 66.61 55.24 65.73 55.23 C64.8 55.22 63.88 55.22 62.92 55.21 C61.49 55.2 61.49 55.2 60.03 55.2 C55.94 55.18 51.85 55.15 47.75 55.12 C44.77 55.11 41.78 55.09 38.8 55.08 C37.88 55.07 36.97 55.07 36.02 55.06 C30.74 55.04 25.69 55.37 20.46 56.15 C20.79 58.46 21.12 60.77 21.46 63.15 C22.41 63.16 22.41 63.16 23.38 63.17 C29.97 63.26 36.56 63.36 43.14 63.46 C45.6 63.5 48.06 63.54 50.52 63.57 C54.05 63.61 57.58 63.67 61.11 63.73 C62.21 63.74 63.32 63.75 64.46 63.77 C65.48 63.79 66.5 63.81 67.55 63.83 C68.45 63.84 69.36 63.85 70.28 63.87 C72.46 64.15 72.46 64.15 74.46 66.15 C74.7 68.28 74.7 68.28 74.69 70.9 C74.69 71.84 74.69 72.77 74.69 73.74 C74.67 74.72 74.66 75.7 74.65 76.71 C74.65 78.18 74.65 78.18 74.65 79.69 C74.6 87.01 74.6 87.01 73.46 88.15 C70.98 88.29 68.53 88.36 66.05 88.4 C65.28 88.41 64.5 88.43 63.7 88.44 C61.12 88.49 58.55 88.53 55.97 88.57 C54.65 88.59 54.65 88.59 53.31 88.61 C48.66 88.68 44.02 88.75 39.37 88.81 C34.56 88.88 29.76 88.96 24.95 89.05 C21.26 89.12 17.57 89.17 13.88 89.22 C12.11 89.24 10.34 89.27 8.56 89.31 C6.09 89.36 3.61 89.39 1.13 89.41 C0.39 89.43 -0.34 89.45 -1.1 89.47 C-3.91 89.48 -6.03 89.44 -8.49 88.01 C-10.01 85.31 -9.95 83.14 -9.99 80.05 C-10.01 78.79 -10.03 77.53 -10.06 76.23 C-10.07 74.85 -10.08 73.47 -10.09 72.08 C-10.11 70.65 -10.13 69.22 -10.15 67.79 C-10.19 64.78 -10.22 61.77 -10.25 58.76 C-10.28 54.96 -10.33 51.16 -10.39 47.36 C-10.61 31.93 -10.72 16.55 -9.54 1.15 C-6.5 -0.38 -3.34 -0 0 0 Z " fill="#F7F5F1" transform="translate(523.5390625,611.854736328125)"/>
<path d="M0 0 C0.73 -0 1.46 -0.01 2.22 -0.01 C4.65 -0.02 7.07 -0.02 9.5 -0.02 C11.19 -0.03 12.87 -0.03 14.56 -0.03 C18.1 -0.04 21.64 -0.04 25.18 -0.04 C29.71 -0.04 34.24 -0.05 38.77 -0.07 C42.26 -0.08 45.75 -0.08 49.23 -0.08 C50.9 -0.08 52.57 -0.09 54.24 -0.1 C56.58 -0.11 58.92 -0.1 61.27 -0.1 C61.95 -0.1 62.64 -0.11 63.34 -0.11 C67.85 -0.09 70.4 0.65 74.89 2.15 C74.89 9.41 74.89 16.67 74.89 24.15 C57.07 24.48 39.25 24.81 20.89 25.15 C20.56 26.47 20.23 27.79 19.89 29.15 C22.81 30.12 24.75 30.29 27.79 30.33 C28.78 30.35 29.78 30.37 30.8 30.39 C31.88 30.4 32.95 30.41 34.05 30.43 C35.15 30.44 36.25 30.46 37.39 30.48 C42.11 30.56 46.82 30.63 51.54 30.7 C54.98 30.75 58.42 30.81 61.86 30.86 C62.94 30.88 64.01 30.89 65.12 30.91 C66.11 30.92 67.1 30.94 68.12 30.96 C69.43 30.97 69.43 30.97 70.77 30.99 C72.89 31.15 72.89 31.15 74.89 32.15 C74.89 39.41 74.89 46.67 74.89 54.15 C64.77 55.27 64.77 55.27 60.74 55.26 C59.84 55.26 58.94 55.26 58.01 55.26 C57.07 55.25 56.14 55.25 55.17 55.24 C54.18 55.24 53.2 55.24 52.18 55.24 C49.06 55.23 45.95 55.22 42.83 55.21 C40.7 55.2 38.58 55.2 36.45 55.19 C31.26 55.18 26.08 55.17 20.89 55.15 C21.22 57.79 21.55 60.43 21.89 63.15 C38.72 63.48 55.55 63.81 72.89 64.15 C72.89 64.81 72.89 65.47 72.89 66.15 C73.55 66.15 74.21 66.15 74.89 66.15 C74.92 69.62 74.94 73.1 74.95 76.58 C74.96 77.58 74.97 78.57 74.98 79.59 C74.98 80.54 74.99 81.48 74.99 82.45 C74.99 83.33 75 84.2 75.01 85.1 C74.89 87.15 74.89 87.15 73.89 88.15 C71.34 88.24 68.81 88.27 66.25 88.26 C65.05 88.26 65.05 88.26 63.83 88.26 C61.17 88.26 58.51 88.25 55.86 88.24 C54.02 88.24 52.18 88.24 50.35 88.24 C45.5 88.23 40.66 88.22 35.81 88.21 C30.87 88.2 25.93 88.2 20.99 88.19 C11.29 88.18 1.59 88.17 -8.11 88.15 C-9.69 84.98 -9.24 81.59 -9.22 78.12 C-9.22 77.29 -9.22 76.46 -9.22 75.6 C-9.22 72.85 -9.21 70.1 -9.21 67.36 C-9.2 65.45 -9.2 63.55 -9.2 61.65 C-9.2 56.63 -9.19 51.62 -9.18 46.61 C-9.17 41.49 -9.16 36.38 -9.16 31.26 C-9.15 21.22 -9.13 11.18 -9.11 1.15 C-6.17 -0.32 -3.22 -0 0 0 Z " fill="#F7F5F1" transform="translate(1083.1083984375,611.854736328125)"/>
<path d="M0 0 C1.17 -0.02 1.17 -0.02 2.37 -0.04 C7.36 -0.05 11.47 0.53 16.19 2.19 C17.19 3.19 17.19 3.19 17.27 5.56 C17.25 6.59 17.23 7.62 17.21 8.68 C17.2 10.36 17.2 10.36 17.18 12.06 C17.14 14.43 17.1 16.8 17.06 19.17 C17.05 20.29 17.04 21.41 17.03 22.56 C17 24.1 17 24.1 16.98 25.68 C16.93 28.36 16.93 28.36 19.19 30.19 C22.06 30.36 24.83 30.42 27.7 30.38 C28.54 30.38 29.38 30.38 30.24 30.37 C32.93 30.36 35.62 30.34 38.31 30.31 C40.13 30.3 41.96 30.29 43.78 30.29 C48.25 30.26 52.72 30.23 57.19 30.19 C57.52 20.62 57.85 11.05 58.19 1.19 C66.35 -1.53 77.77 -0.25 86.19 1.19 C87.18 1.68 87.18 1.68 88.19 2.19 C88.21 13.25 88.23 24.32 88.24 35.38 C88.24 40.52 88.25 45.66 88.26 50.8 C88.27 55.75 88.28 60.7 88.28 65.66 C88.28 67.55 88.29 69.45 88.29 71.34 C88.3 73.98 88.3 76.63 88.3 79.27 C88.3 80.06 88.31 80.85 88.31 81.67 C88.3 87.07 88.3 87.07 87.19 88.19 C85.11 88.28 83.04 88.29 80.96 88.29 C79.07 88.28 79.07 88.28 77.15 88.28 C75.81 88.27 74.47 88.26 73.12 88.25 C71.78 88.24 70.44 88.24 69.09 88.24 C65.79 88.22 62.49 88.21 59.19 88.19 C57.74 85.29 57.99 82.69 57.91 79.46 C57.89 78.8 57.87 78.14 57.85 77.46 C57.77 74.63 57.7 71.8 57.64 68.97 C57.58 66.91 57.53 64.84 57.47 62.78 C57.44 61.54 57.41 60.3 57.38 59.02 C57.51 56.29 57.51 56.29 56.19 55.19 C53.3 55.1 50.44 55.07 47.56 55.09 C46.69 55.09 45.83 55.09 44.94 55.09 C42.17 55.1 39.4 55.11 36.62 55.12 C34.75 55.13 32.88 55.13 31 55.14 C26.4 55.15 21.79 55.17 17.19 55.19 C17.2 56.63 17.2 56.63 17.2 58.11 C17.22 61.67 17.23 65.24 17.24 68.8 C17.25 70.35 17.25 71.89 17.26 73.44 C17.28 75.66 17.28 77.87 17.29 80.09 C17.29 80.78 17.3 81.48 17.3 82.2 C17.3 83.86 17.25 85.52 17.19 87.19 C14.78 89.59 9.45 89.07 6.19 89.19 C3.02 89.13 -0.15 88.99 -3.31 88.81 C-4.11 88.77 -4.92 88.73 -5.74 88.68 C-11.55 88.32 -11.55 88.32 -13.81 87.19 C-14.07 58.52 -13.37 29.85 -12.81 1.19 C-8.48 0.05 -4.47 0 0 0 Z " fill="#F7F5F1" transform="translate(762.8125,611.8125)"/>
<path d="M0 0 C2.19 -0 4.37 -0.02 6.56 -0.04 C7.95 -0.04 9.35 -0.04 10.75 -0.05 C12.64 -0.05 12.64 -0.05 14.56 -0.06 C19.58 0.32 19.58 0.32 21.79 2.19 C22.98 4.79 23.92 7.23 24.79 9.94 C25.19 11.14 25.19 11.14 25.61 12.37 C26.5 15.01 27.36 17.66 28.23 20.31 C28.84 22.15 29.46 23.98 30.07 25.81 C35.06 40.74 39.91 55.7 44.71 70.69 C45.1 71.91 45.1 71.91 45.5 73.15 C45.98 74.66 46.46 76.17 46.94 77.68 C48.01 80.99 49.11 84.14 50.79 87.19 C48.07 89.91 40.14 88.46 36.21 88.48 C33.93 88.5 31.66 88.54 29.38 88.59 C27.94 88.6 26.5 88.6 25.05 88.61 C23.73 88.63 22.41 88.64 21.06 88.66 C17.79 88.19 17.79 88.19 15.9 86.53 C14.79 84.19 14.79 84.19 13.79 78.19 C-1.55 78.68 -1.55 78.68 -17.21 79.19 C-18.2 82.16 -19.19 85.13 -20.21 88.19 C-30.77 88.19 -41.33 88.19 -52.21 88.19 C-53.29 83.84 -53.01 82.76 -51.61 78.67 C-51.03 76.98 -51.03 76.98 -50.45 75.25 C-50.02 74.01 -49.59 72.77 -49.14 71.5 C-48.7 70.19 -48.25 68.89 -47.81 67.58 C-46.83 64.7 -45.84 61.83 -44.85 58.96 C-43.07 53.8 -41.32 48.63 -39.56 43.47 C-25.7 2.68 -25.7 2.68 -24.21 1.19 C-16.27 -0.25 -8.04 -0 0 0 Z " fill="#F7F5F1" transform="translate(912.20654296875,611.814697265625)"/>
<path d="M0 0 C1.72 -0.02 3.44 -0.04 5.16 -0.08 C7.65 -0.14 10.15 -0.16 12.64 -0.17 C13.79 -0.21 13.79 -0.21 14.96 -0.24 C18.7 -0.23 20.76 0.17 23.84 2.34 C26.55 6.1 27.84 9.66 29.17 14.06 C29.44 14.91 29.71 15.75 29.99 16.62 C30.84 19.32 31.68 22.02 32.51 24.73 C33.07 26.5 33.63 28.28 34.2 30.06 C35.29 33.52 36.38 36.99 37.47 40.46 C41.26 52.56 41.26 52.56 45.58 64.48 C47.34 69.03 48.67 73.72 50.05 78.4 C50.91 81.28 50.91 81.28 52.14 83.55 C53.01 85.35 53.01 85.35 53.01 88.35 C48.51 88.47 44.01 88.56 39.51 88.62 C37.98 88.65 36.44 88.68 34.91 88.73 C32.71 88.79 30.51 88.82 28.31 88.84 C27.62 88.86 26.94 88.89 26.23 88.92 C24.29 88.92 24.29 88.92 21.01 88.35 C19.18 86.07 19.18 86.07 18.01 83.35 C17.35 82.03 16.69 80.71 16.01 79.35 C5.78 79.02 -4.45 78.69 -14.99 78.35 C-15.65 81.32 -16.31 84.29 -16.99 87.35 C-19.66 90.02 -27.35 88.58 -31.2 88.59 C-33.41 88.6 -35.62 88.63 -37.84 88.66 C-39.24 88.67 -40.64 88.67 -42.04 88.68 C-43.33 88.69 -44.61 88.7 -45.93 88.71 C-46.94 88.59 -47.95 88.47 -48.99 88.35 C-49.65 87.36 -50.31 86.37 -50.99 85.35 C-50.51 83.47 -50.51 83.47 -49.47 81.22 C-47.51 76.7 -45.83 72.13 -44.29 67.45 C-44.05 66.73 -43.81 66.01 -43.56 65.27 C-42.81 62.99 -42.05 60.7 -41.3 58.41 C-40.77 56.81 -40.24 55.21 -39.71 53.61 C-38.38 49.61 -37.06 45.61 -35.73 41.61 C-33.82 35.83 -31.91 30.06 -29.99 24.29 C-29.64 23.23 -29.29 22.18 -28.93 21.09 C-26.73 14.47 -24.41 7.9 -21.99 1.35 C-14.7 -0.08 -7.4 0.05 0 0 Z " fill="#F7F5F1" transform="translate(259.986083984375,611.64990234375)"/>
<path d="M0 0 C0.81 -0 1.63 -0.01 2.47 -0.02 C5.17 -0.03 7.87 -0.04 10.57 -0.04 C12.45 -0.05 14.32 -0.05 16.19 -0.06 C20.12 -0.07 24.05 -0.08 27.98 -0.08 C33.03 -0.08 38.07 -0.11 43.11 -0.14 C46.98 -0.16 50.85 -0.16 54.72 -0.16 C56.58 -0.17 58.44 -0.17 60.3 -0.19 C62.89 -0.2 65.49 -0.2 68.09 -0.2 C69.25 -0.21 69.25 -0.21 70.43 -0.22 C75.62 -0.18 75.62 -0.18 78.09 1.55 C79.47 3.72 79.47 5.23 79.44 7.79 C79.43 8.68 79.43 9.57 79.42 10.49 C79.4 11.41 79.38 12.33 79.36 13.29 C79.35 14.22 79.35 15.15 79.34 16.11 C79.26 23.01 79.26 23.01 78.11 24.16 C68.87 24.49 59.63 24.82 50.11 25.16 C49.78 45.95 49.45 66.74 49.11 88.16 C39.87 88.16 30.63 88.16 21.11 88.16 C19.11 86.16 19.11 86.16 18.88 83.65 C18.88 82.59 18.89 81.53 18.9 80.44 C18.9 79.24 18.91 78.05 18.91 76.81 C18.92 75.51 18.94 74.21 18.95 72.88 C18.96 71.54 18.96 70.2 18.97 68.86 C18.98 65.33 19 61.8 19.03 58.27 C19.07 52.62 19.1 46.96 19.13 41.31 C19.14 39.33 19.15 37.35 19.17 35.37 C19.18 34.18 19.18 32.98 19.19 31.75 C19.2 30.69 19.21 29.64 19.22 28.55 C19.38 26.21 19.38 26.21 18.11 25.16 C16.11 25 14.11 24.91 12.11 24.84 C10.89 24.8 9.68 24.76 8.42 24.72 C7.14 24.68 5.87 24.64 4.55 24.6 C3.26 24.56 1.98 24.51 0.66 24.47 C-2.52 24.36 -5.71 24.26 -8.89 24.16 C-10.12 21.71 -10 20.11 -9.99 17.37 C-9.98 16.43 -9.98 15.49 -9.98 14.52 C-9.97 13.54 -9.96 12.55 -9.95 11.54 C-9.95 10.54 -9.94 9.55 -9.94 8.53 C-9.93 6.07 -9.91 3.62 -9.89 1.16 C-6.76 -0.4 -3.43 0 0 0 Z " fill="#F7F5F1" transform="translate(133.890380859375,611.8388671875)"/>
<path d="M0 0 C0.33 20.13 0.66 40.26 1 61 C15.3 61.25 15.3 61.25 29.6 61.48 C31.4 61.51 33.19 61.55 34.98 61.59 C35.91 61.6 36.84 61.61 37.8 61.62 C38.69 61.64 39.59 61.66 40.51 61.68 C41.28 61.69 42.05 61.71 42.85 61.72 C45.25 62.03 46.91 62.81 49 64 C49.03 67.48 49.05 70.96 49.06 74.44 C49.07 75.43 49.08 76.42 49.09 77.45 C49.09 78.39 49.09 79.34 49.1 80.31 C49.1 81.18 49.11 82.06 49.11 82.96 C49 85 49 85 48 86 C45.64 86.11 43.3 86.15 40.94 86.15 C40.2 86.15 39.47 86.15 38.7 86.16 C36.25 86.16 33.8 86.17 31.35 86.17 C29.65 86.17 27.95 86.17 26.25 86.18 C22.69 86.18 19.13 86.19 15.56 86.19 C10.99 86.19 6.41 86.2 1.84 86.22 C-1.67 86.23 -5.18 86.23 -8.68 86.23 C-10.37 86.23 -12.06 86.23 -13.74 86.24 C-16.1 86.25 -18.46 86.25 -20.81 86.24 C-21.51 86.25 -22.22 86.25 -22.94 86.26 C-27.77 86.23 -27.77 86.23 -30 84 C-30.19 81.32 -30.26 78.75 -30.24 76.08 C-30.24 75.26 -30.25 74.44 -30.25 73.6 C-30.25 70.89 -30.24 68.18 -30.23 65.46 C-30.23 63.59 -30.23 61.71 -30.23 59.83 C-30.23 55.89 -30.22 51.95 -30.21 48.02 C-30.19 42.96 -30.18 37.9 -30.19 32.84 C-30.19 28.96 -30.18 25.08 -30.17 21.2 C-30.17 19.33 -30.17 17.47 -30.17 15.6 C-30.16 13 -30.16 10.4 -30.15 7.79 C-30.15 7.01 -30.15 6.24 -30.15 5.43 C-30.11 0.11 -30.11 0.11 -29 -1 C-19.21 -2.49 -9.45 -3.15 0 0 Z " fill="#F7F5F1" transform="translate(455,614)"/>
<path d="M0 0 C10.37 8.74 10.37 8.74 12 12 C12.09 14.11 12.11 16.21 12.1 18.32 C12.09 19.58 12.09 20.83 12.09 22.13 C12.08 24.11 12.08 24.11 12.06 26.12 C12.06 27.46 12.05 28.8 12.05 30.14 C12.04 33.43 12.02 36.71 12 40 C18.6 40.33 25.2 40.66 32 41 C30.31 44.37 29.3 45.95 26.74 48.48 C26.08 49.14 25.42 49.8 24.74 50.48 C24.03 51.19 23.32 51.89 22.59 52.61 C21.86 53.34 21.13 54.06 20.37 54.81 C18.05 57.13 15.71 59.44 13.38 61.75 C11.79 63.32 10.21 64.89 8.63 66.46 C4.76 70.32 0.88 74.16 -3 78 C-7 76.51 -9.01 75.23 -11.75 71.94 C-26.24 54.73 -26.24 54.73 -45 43 C-42.6 40.6 -42.05 40.75 -38.78 40.73 C-37.94 40.71 -37.09 40.69 -36.22 40.67 C-35.32 40.66 -34.42 40.64 -33.5 40.62 C-21.9 40.2 -14.43 38.19 -5.85 30.02 C-0.04 23.68 0.17 16.52 0.11 8.34 C-0.01 5.82 -0.44 3.46 -1 1 C-0.67 0.67 -0.34 0.34 0 0 Z " fill="#D99736" transform="translate(737,659)"/>
<path d="M0 0 C1.65 10.89 3.3 21.78 5 33 C6.45 24.33 7.78 15.68 8.94 6.97 C9.07 6.08 9.19 5.19 9.32 4.27 C9.42 3.47 9.53 2.67 9.64 1.85 C10 0 10 0 11 -1 C12.64 -1.1 14.29 -1.13 15.94 -1.12 C16.83 -1.13 17.73 -1.13 18.65 -1.13 C21 -1 21 -1 23 0 C23 17.16 23 34.32 23 52 C20.69 52 18.38 52 16 52 C14.33 50.33 14.79 48.24 14.72 45.94 C14.68 44.92 14.64 43.89 14.61 42.83 C14.55 41.21 14.55 41.21 14.5 39.56 C14.43 37.44 14.36 35.31 14.28 33.19 C14.25 32.24 14.22 31.3 14.19 30.32 C14.14 27.98 14.14 27.98 13 26 C13.09 24.45 13.24 22.91 13.44 21.38 C13.54 20.56 13.64 19.74 13.75 18.9 C13.83 18.27 13.91 17.65 14 17 C13.34 17 12.68 17 12 17 C12.03 17.77 12.07 18.53 12.11 19.32 C12.38 30.42 10.76 41.07 9 52 C6.69 52 4.38 52 2 52 C2 51.34 2 50.68 2 50 C1.34 50 0.68 50 0 50 C-0.09 49.29 -0.17 48.58 -0.26 47.84 C-0.65 44.63 -1.04 41.41 -1.44 38.19 C-1.57 37.07 -1.71 35.95 -1.85 34.79 C-1.98 33.72 -2.11 32.65 -2.25 31.54 C-2.37 30.55 -2.49 29.56 -2.61 28.54 C-2.94 25.89 -2.94 25.89 -4 23 C-4.33 32.57 -4.66 42.14 -5 52 C-6.98 52 -8.96 52 -11 52 C-12.24 49.52 -12.12 47.87 -12.11 45.09 C-12.11 44.07 -12.11 43.05 -12.11 42 C-12.11 40.89 -12.1 39.79 -12.1 38.65 C-12.1 37.52 -12.09 36.39 -12.09 35.23 C-12.09 31.61 -12.08 27.99 -12.06 24.38 C-12.06 21.93 -12.05 19.48 -12.05 17.03 C-12.04 11.02 -12.02 5.01 -12 -1 C-10 -2 -10 -2 0 0 Z " fill="#F5F3EF" transform="translate(527,1008)"/>
<path d="M0 0 C2.92 -0.05 5.83 -0.09 8.75 -0.12 C9.57 -0.14 10.4 -0.16 11.25 -0.18 C12.05 -0.18 12.85 -0.19 13.67 -0.2 C14.41 -0.21 15.14 -0.22 15.89 -0.23 C19.35 0.15 21.42 1.34 23.69 3.94 C26.2 9.79 26.89 15.72 24.56 21.69 C24.05 22.45 23.53 23.21 23 24 C22.34 24 21.68 24 21 24 C21.63 24.93 22.27 25.86 22.92 26.82 C25.66 31.62 25.93 36.45 26.31 41.88 C26.4 42.84 26.48 43.8 26.57 44.79 C26.99 49.88 26.99 49.88 27 52 C26 53 26 53 22.56 53.19 C19 53 19 53 17 51 C16.72 48.18 16.53 45.45 16.44 42.62 C16.38 41.1 16.31 39.57 16.25 38.04 C16.22 37.36 16.2 36.68 16.17 35.98 C15.99 33.9 15.56 32.01 15 30 C13.35 30.33 11.7 30.66 10 31 C9.67 38.26 9.34 45.52 9 53 C6.36 53 3.72 53 1 53 C-0.24 50.52 -0.12 48.87 -0.11 46.09 C-0.11 45.07 -0.11 44.05 -0.11 43 C-0.11 41.89 -0.1 40.79 -0.1 39.65 C-0.1 38.52 -0.09 37.39 -0.09 36.23 C-0.09 32.61 -0.08 28.99 -0.06 25.38 C-0.06 22.93 -0.05 20.48 -0.05 18.03 C-0.04 12.02 -0.02 6.01 0 0 Z " fill="#F4F2EE" transform="translate(441,1007)"/>
<path d="M0 0 C1.15 -0.04 1.15 -0.04 2.32 -0.09 C6.26 -0.13 8.25 0 11.67 2.14 C15.61 6.26 16.05 8.72 16.06 14.31 C16.08 15.55 16.1 16.79 16.11 18.06 C15.73 21.53 15.35 22.21 12.75 24.31 C13.04 27.35 14.01 28.7 15.75 31.31 C16.07 33.67 16.07 33.67 16.16 36.42 C16.2 37.4 16.24 38.38 16.28 39.4 C16.31 40.42 16.34 41.44 16.38 42.5 C16.41 43.54 16.45 44.57 16.49 45.64 C16.59 48.2 16.67 50.75 16.75 53.31 C13.38 53.44 13.38 53.44 9.75 53.31 C6.76 50.32 7.36 46.89 7.25 42.88 C7.21 36.79 7.21 36.79 4.75 31.31 C3.1 30.98 1.45 30.65 -0.25 30.31 C-0.25 37.9 -0.25 45.49 -0.25 53.31 C-2.89 53.31 -5.53 53.31 -8.25 53.31 C-9.12 50.29 -9.38 47.61 -9.38 44.47 C-9.38 43.51 -9.39 42.55 -9.39 41.57 C-9.39 40.54 -9.38 39.51 -9.38 38.46 C-9.38 37.4 -9.38 36.34 -9.39 35.25 C-9.39 33.02 -9.38 30.79 -9.38 28.56 C-9.38 25.13 -9.38 21.7 -9.39 18.27 C-9.39 16.1 -9.38 13.94 -9.38 11.77 C-9.38 10.74 -9.39 9.71 -9.39 8.64 C-9.39 7.69 -9.38 6.75 -9.38 5.77 C-9.38 4.93 -9.38 4.09 -9.38 3.23 C-9.06 -1.5 -3.64 0.05 0 0 Z " fill="#F7F5F1" transform="translate(893.25,1006.6875)"/>
<path d="M0 0 C2.73 -0.08 5.46 -0.14 8.19 -0.19 C9.34 -0.23 9.34 -0.23 10.52 -0.26 C15.19 -0.32 18.22 -0.05 22 3 C24.12 6.18 24.4 7.65 24.75 11.38 C24.9 12.78 24.9 12.78 25.05 14.21 C24.98 18.38 23.94 21.06 21 24 C21.37 26.93 21.86 27.86 24 30 C24.97 32.88 25.12 35.52 25.1 38.55 C25.09 39.39 25.09 40.24 25.09 41.11 C25.08 41.98 25.07 42.85 25.06 43.75 C25.06 44.64 25.05 45.53 25.05 46.44 C25.04 48.63 25.02 50.81 25 53 C21.62 53.12 21.62 53.12 18 53 C16 51 16 51 15.88 47.99 C15.92 46.78 15.96 45.56 16 44.31 C16.09 39.05 15.87 34.9 14 30 C12.02 30 10.04 30 8 30 C8 37.59 8 45.18 8 53 C5.69 53 3.38 53 1 53 C-1.19 49.71 -1.23 48.87 -1.14 45.07 C-1.12 44.07 -1.09 43.07 -1.07 42.04 C-1.04 40.96 -1.01 39.88 -0.98 38.77 C-0.95 37.66 -0.93 36.56 -0.9 35.42 C-0.82 31.88 -0.72 28.35 -0.62 24.81 C-0.57 22.42 -0.51 20.02 -0.45 17.63 C-0.31 11.75 -0.16 5.88 0 0 Z " fill="#F7F5F1" transform="translate(750,1007)"/>
<path d="M0 0 C3.38 -0.12 3.38 -0.12 7 0 C9.4 2.4 9.27 3.04 9.38 6.32 C9.43 7.59 9.43 7.59 9.48 8.88 C9.51 9.77 9.54 10.65 9.56 11.56 C9.62 13.31 9.69 15.07 9.75 16.82 C9.78 17.59 9.8 18.37 9.83 19.17 C9.81 21.02 9.81 21.02 11 22 C13 22.04 15 22.04 17 22 C17.03 21.37 17.05 20.74 17.08 20.09 C17.19 17.25 17.31 14.4 17.44 11.56 C17.48 10.57 17.52 9.58 17.56 8.55 C17.6 7.61 17.64 6.66 17.68 5.69 C17.72 4.82 17.76 3.94 17.79 3.04 C18 1 18 1 19 0 C21.94 -0.25 21.94 -0.25 25 0 C27.18 3.26 27.25 4.16 27.23 7.93 C27.23 8.93 27.23 9.93 27.23 10.96 C27.22 12.04 27.21 13.12 27.2 14.23 C27.19 15.34 27.19 16.44 27.19 17.58 C27.18 21.12 27.15 24.65 27.12 28.19 C27.11 30.58 27.11 32.98 27.1 35.37 C27.08 41.25 27.04 47.12 27 53 C24.36 53 21.72 53 19 53 C17.83 50.65 17.8 49.05 17.68 46.43 C17.64 45.53 17.6 44.64 17.56 43.71 C17.52 42.78 17.48 41.84 17.44 40.88 C17.39 39.93 17.35 38.99 17.31 38.01 C17.2 35.67 17.1 33.34 17 31 C14.36 30.67 11.72 30.34 9 30 C9.01 30.66 9.01 31.32 9.02 32 C9.04 34.98 9.05 37.96 9.06 40.94 C9.07 41.98 9.08 43.02 9.09 44.09 C9.09 45.08 9.09 46.07 9.1 47.09 C9.1 48.01 9.11 48.92 9.11 49.87 C9 52 9 52 8 53 C5.06 53.19 5.06 53.19 2 53 C0 51 0 51 -0.24 48.82 C-0.24 47.92 -0.23 47.02 -0.23 46.09 C-0.23 45.07 -0.23 44.05 -0.23 43 C-0.22 41.89 -0.21 40.79 -0.2 39.65 C-0.19 38.52 -0.19 37.39 -0.19 36.23 C-0.18 32.61 -0.15 28.99 -0.12 25.38 C-0.11 22.93 -0.11 20.48 -0.1 18.03 C-0.08 12.02 -0.04 6.01 0 0 Z " fill="#F5F3EF" transform="translate(377,1007)"/>
<path d="M0 0 C1.62 -0.05 3.25 -0.09 4.88 -0.12 C6.23 -0.16 6.23 -0.16 7.62 -0.2 C10 0 10 0 12 2 C12.5 3.82 12.5 3.82 12.85 6.05 C12.99 6.88 13.13 7.72 13.27 8.58 C13.41 9.48 13.55 10.39 13.69 11.32 C13.84 12.25 13.99 13.19 14.15 14.15 C14.63 17.14 15.09 20.13 15.56 23.12 C15.88 25.12 16.2 27.11 16.52 29.11 C17.79 37.06 19.04 45 20 53 C16.62 53.12 16.62 53.12 13 53 C10.31 50.31 9.94 47.62 9 44 C6.03 44 3.06 44 0 44 C0.02 45.3 0.04 46.6 0.06 47.94 C0.08 49.29 0.07 50.65 0 52 C-1 53 -1 53 -4.56 53.06 C-5.7 53.04 -6.83 53.02 -8 53 C-9.07 49.79 -8.94 48.54 -8.4 45.28 C-8.24 44.33 -8.08 43.38 -7.92 42.39 C-7.74 41.36 -7.57 40.34 -7.38 39.28 C-7.21 38.22 -7.03 37.16 -6.85 36.08 C-6.47 33.84 -6.09 31.61 -5.71 29.38 C-5.13 25.95 -4.55 22.52 -3.98 19.09 C-3.62 16.92 -3.25 14.76 -2.88 12.59 C-2.62 11.04 -2.62 11.04 -2.36 9.47 C-2.2 8.52 -2.03 7.57 -1.86 6.59 C-1.72 5.75 -1.58 4.91 -1.43 4.04 C-1 2 -1 2 0 0 Z " fill="#F5F3EF" transform="translate(417,1007)"/>
<path d="M0 0 C1.62 -0.03 3.25 -0.05 4.88 -0.06 C5.78 -0.07 6.68 -0.09 7.62 -0.1 C10 0 10 0 12 1 C12.59 3.74 13.04 6.41 13.44 9.17 C13.56 10.01 13.69 10.84 13.82 11.7 C14.22 14.38 14.61 17.07 15 19.75 C15.26 21.51 15.53 23.28 15.79 25.04 C16.3 28.46 16.8 31.87 17.3 35.29 C18.17 41.2 19.08 47.1 20 53 C16.62 53.12 16.62 53.12 13 53 C10.53 50.53 10.05 48.29 9 45 C8.02 43.79 8.02 43.79 6.15 43.9 C4.1 43.93 2.05 43.97 0 44 C-0.33 46.97 -0.66 49.94 -1 53 C-3.31 53 -5.62 53 -8 53 C-9.07 49.79 -8.94 48.54 -8.4 45.28 C-8.24 44.33 -8.08 43.38 -7.92 42.39 C-7.74 41.36 -7.57 40.34 -7.38 39.28 C-7.21 38.22 -7.03 37.16 -6.85 36.08 C-6.47 33.84 -6.09 31.61 -5.71 29.38 C-5.13 25.95 -4.55 22.52 -3.98 19.09 C-3.62 16.92 -3.25 14.76 -2.88 12.59 C-2.62 11.04 -2.62 11.04 -2.36 9.47 C-2.2 8.52 -2.03 7.57 -1.86 6.59 C-1.72 5.75 -1.58 4.91 -1.43 4.04 C-1 2 -1 2 0 0 Z " fill="#F5F3EF" transform="translate(860,1007)"/>
<path d="M0 0 C1.62 -0.05 3.25 -0.09 4.88 -0.12 C6.23 -0.16 6.23 -0.16 7.62 -0.2 C10 0 10 0 12 2 C12 3.67 12 5.33 12 7 C12.46 8.35 12.46 8.35 12.92 9.72 C14.07 13.21 14.7 16.56 15.29 20.19 C15.45 21.19 15.45 21.19 15.62 22.21 C15.84 23.62 16.07 25.02 16.29 26.42 C16.62 28.56 16.97 30.7 17.32 32.83 C17.54 34.2 17.76 35.57 17.98 36.94 C18.17 38.18 18.37 39.41 18.57 40.68 C18.94 43.51 19.04 46.15 19 49 C19.29 50.34 19.61 51.68 20 53 C16.62 53.12 16.62 53.12 13 53 C10.31 50.31 9.94 47.62 9 44 C6.36 44 3.72 44 1 44 C0.86 45.3 0.71 46.6 0.56 47.94 C0.12 51.88 0.12 51.88 -1 53 C-3.33 53.04 -5.67 53.04 -8 53 C-9.39 48.84 -8.39 45.27 -7.64 41.05 C-7.48 40.17 -7.33 39.29 -7.18 38.37 C-6.85 36.5 -6.53 34.62 -6.19 32.75 C-5.69 29.91 -5.2 27.06 -4.71 24.22 C-4.4 22.39 -4.08 20.57 -3.76 18.74 C-3.62 17.9 -3.47 17.06 -3.32 16.19 C-2.36 10.76 -1.23 5.38 0 0 Z " fill="#F6F4F0" transform="translate(592,1007)"/>
<path d="M0 0 C1.62 -0.03 3.25 -0.05 4.88 -0.06 C5.78 -0.07 6.68 -0.09 7.62 -0.1 C10 0 10 0 12 1 C12.54 2.96 12.54 2.96 12.96 5.56 C13.12 6.54 13.28 7.51 13.45 8.51 C13.61 9.56 13.78 10.62 13.95 11.71 C14.12 12.79 14.29 13.87 14.47 14.98 C14.84 17.27 15.21 19.56 15.57 21.85 C16.12 25.35 16.69 28.86 17.25 32.37 C17.61 34.59 17.97 36.8 18.32 39.02 C18.49 40.08 18.66 41.13 18.83 42.21 C18.99 43.19 19.14 44.17 19.3 45.18 C19.43 46.04 19.57 46.9 19.71 47.79 C20 50 20 50 20 53 C16.62 53.12 16.62 53.12 13 53 C10.53 50.53 10.05 48.29 9 45 C8.02 43.79 8.02 43.79 6.15 43.9 C4.1 43.93 2.05 43.97 0 44 C-0.33 46.97 -0.66 49.94 -1 53 C-3.31 53 -5.62 53 -8 53 C-7.47 42.85 -6.03 32.92 -4.42 22.89 C-3.99 20.28 -3.58 17.66 -3.17 15.05 C-2.91 13.38 -2.64 11.72 -2.38 10.05 C-2.25 9.27 -2.13 8.49 -2 7.69 C-1.12 2.23 -1.12 2.23 0 0 Z " fill="#F5F3EF" transform="translate(725,1007)"/>
<path d="M0 0 C5.75 -0.12 5.75 -0.12 8 1 C8.03 1.6 8.05 2.2 8.08 2.82 C8.19 5.53 8.31 8.23 8.44 10.94 C8.48 11.88 8.52 12.83 8.56 13.8 C8.62 15.15 8.62 15.15 8.68 16.53 C8.72 17.36 8.76 18.19 8.79 19.05 C8.79 21 8.79 21 10 22 C11.98 22 13.96 22 16 22 C16.33 14.74 16.66 7.48 17 0 C19.31 0 21.62 0 24 0 C25.82 3.12 26.25 5.36 26.23 8.95 C26.23 9.93 26.23 10.91 26.23 11.92 C26.22 12.98 26.21 14.03 26.2 15.11 C26.19 16.19 26.19 17.27 26.19 18.39 C26.18 21.84 26.15 25.3 26.12 28.75 C26.11 31.09 26.11 33.43 26.1 35.78 C26.08 41.52 26.04 47.26 26 53 C23.36 53 20.72 53 18 53 C16.83 50.65 16.8 49.05 16.68 46.43 C16.64 45.53 16.6 44.64 16.56 43.71 C16.52 42.78 16.48 41.84 16.44 40.88 C16.39 39.93 16.35 38.99 16.31 38.01 C16.2 35.67 16.1 33.34 16 31 C13.36 30.67 10.72 30.34 8 30 C8 37.59 8 45.18 8 53 C5.69 53 3.38 53 1 53 C-0.24 50.52 -0.12 48.87 -0.11 46.09 C-0.11 45.07 -0.11 44.05 -0.11 43 C-0.11 41.89 -0.1 40.79 -0.1 39.65 C-0.1 38.52 -0.09 37.39 -0.09 36.23 C-0.09 32.61 -0.08 28.99 -0.06 25.38 C-0.06 22.93 -0.05 20.48 -0.05 18.03 C-0.04 12.02 -0.02 6.01 0 0 Z " fill="#F5F3EF" transform="translate(686,1007)"/>
<path d="M0 0 C3.41 2.56 5.38 5.1 7 9 C7.2 11.36 7.2 11.36 7.12 13.75 C7.11 14.55 7.09 15.35 7.07 16.17 C7.05 16.78 7.02 17.38 7 18 C4.12 18.12 4.12 18.12 1 18 C-1.47 15.53 -1.97 13.31 -3 10 C-3.33 9.34 -3.66 8.68 -4 8 C-7.12 8.65 -7.12 8.65 -8 11 C-8.09 13.41 -8.12 15.79 -8.1 18.2 C-8.1 19.26 -8.1 19.26 -8.09 20.34 C-8.09 22.6 -8.08 24.86 -8.06 27.12 C-8.06 28.66 -8.05 30.19 -8.05 31.72 C-8.04 35.48 -8.02 39.24 -8 43 C-6.35 43.66 -4.7 44.32 -3 45 C-1.58 41.18 -0.76 38.09 -1 34 C1.88 33.38 1.88 33.38 5 33 C7.48 35.48 7.3 36.33 7.31 39.75 C7.22 44.19 6.6 47.28 4 51 C-0.22 53.6 -4.18 53.64 -9 53 C-12.03 52.05 -13.41 51.06 -16 49 C-18.91 42.19 -18.29 34.84 -18.25 27.56 C-18.26 26.28 -18.27 24.99 -18.27 23.67 C-18.24 7.73 -18.24 7.73 -14 2.56 C-9.71 -0.79 -5.28 -0.75 0 0 Z " fill="#F7F5F1" transform="translate(840,1007)"/>
<path d="M0 0 C2.92 1.84 4.57 3.87 6 7 C6.45 10.08 6.38 12.92 6 16 C3.19 15.81 3.19 15.81 0 15 C-1.85 12.59 -3 11.07 -3 8 C-4.65 8.33 -6.3 8.66 -8 9 C-8.82 12.22 -9.27 14.29 -8.06 17.44 C-6.19 19.77 -4.43 21.32 -2.12 23.19 C3.45 27.91 6.53 33.51 7.5 40.75 C6.77 45.49 5.51 48.67 1.88 51.88 C-2.17 53.46 -5.72 53.69 -10 53 C-13.8 50.99 -15.62 49.57 -18 46 C-18.54 43.34 -18.73 40.71 -19 38 C-15.62 37.38 -15.62 37.38 -12 37 C-10 39 -10 39 -9.88 41.62 C-9.92 42.41 -9.96 43.19 -10 44 C-7.65 44.77 -7.65 44.77 -5 45 C-3.16 43.67 -3.16 43.67 -2 42 C-3.27 33.67 -9.32 28.49 -15.23 22.89 C-18.61 19.29 -18.33 15.19 -18.29 10.51 C-17.87 6.82 -16.45 4.73 -14 2 C-9.57 -0.71 -5.04 -1.02 0 0 Z " fill="#F6F4F0" transform="translate(673,1007)"/>
<path d="M0 0 C0.33 0.66 0.66 1.32 1 2 C1.66 2 2.32 2 3 2 C2.67 3.98 2.34 5.96 2 8 C-4.43 8.5 -4.43 8.5 -11 9 C-11.02 11.12 -11.04 13.25 -11.06 15.44 C-11.07 16.63 -11.09 17.83 -11.1 19.06 C-11.34 21.89 -11.34 21.89 -10 23 C-8.65 23.23 -7.3 23.41 -5.94 23.56 C-4.64 23.71 -3.34 23.85 -2 24 C-1.34 25.98 -0.68 27.96 0 30 C-1 31 -1 31 -3.5 31.1 C-6.34 31.07 -9.17 31.03 -12 31 C-11.67 35.95 -11.34 40.9 -11 46 C-8.09 46.12 -8.09 46.12 -5.12 46.25 C-1.82 46.39 -1.82 46.39 1 47 C2.88 49.53 3 50.81 3 54 C-0.62 54.06 -4.25 54.09 -7.88 54.12 C-8.91 54.14 -9.94 54.16 -11 54.18 C-12.48 54.19 -12.48 54.19 -13.99 54.2 C-15.36 54.21 -15.36 54.21 -16.75 54.23 C-19 54 -19 54 -21 52 C-21.24 49.82 -21.24 49.82 -21.23 47.09 C-21.23 46.07 -21.23 45.05 -21.23 44 C-21.22 42.89 -21.21 41.79 -21.2 40.65 C-21.19 39.52 -21.19 38.39 -21.19 37.23 C-21.18 33.61 -21.15 29.99 -21.12 26.38 C-21.11 23.93 -21.11 21.48 -21.1 19.03 C-21.08 13.02 -21.04 7.01 -21 1 C-10.61 0.5 -10.61 0.5 0 0 Z " fill="#F7F5F1" transform="translate(937,1006)"/>
<path d="M0 0 C3.34 2.06 4.83 3.74 7 7 C7.54 9.66 7.73 12.29 8 15 C5.19 15.69 5.19 15.69 2 16 C-0.33 14.45 -1.13 12.77 -2.5 10.31 C-3 9.55 -3.49 8.79 -4 8 C-4.99 8 -5.98 8 -7 8 C-7.99 11.16 -8.47 12.79 -8 16 C-5.41 19.72 -2.21 22.81 1 26 C5.63 30.68 7.4 33.99 7.69 40.69 C7.39 47.41 7.39 47.41 4.56 50.25 C3.72 50.83 2.87 51.4 2 52 C1.67 52.33 1.34 52.66 1 53 C-3.77 53.56 -8.56 53.62 -13 51.62 C-16.75 48.35 -17.17 46.03 -17.91 41.24 C-18 39 -18 39 -17 37 C-12.5 36.64 -12.5 36.64 -10.19 38.31 C-9 40 -9 40 -9 43 C-8.01 43.33 -7.02 43.66 -6 44 C-6 44.66 -6 45.32 -6 46 C-4.68 45.34 -3.36 44.68 -2 44 C-1.42 39.36 -1.71 36.87 -4.5 33.06 C-7.54 29.35 -10.9 25.98 -14.36 22.66 C-17.17 19.81 -17.21 17.65 -17.31 13.75 C-17.27 8.7 -16.52 5.82 -13 2 C-8.8 -0.54 -4.79 -0.71 0 0 Z " fill="#F7F5F1" transform="translate(364,1007)"/>
<path d="M0 0 C3.46 -0.03 6.92 -0.05 10.38 -0.06 C11.36 -0.07 12.34 -0.08 13.36 -0.09 C14.77 -0.09 14.77 -0.09 16.21 -0.1 C17.51 -0.11 17.51 -0.11 18.85 -0.11 C21 0 21 0 23 1 C22.67 2.98 22.34 4.96 22 7 C17.71 7 13.42 7 9 7 C9 11.62 9 16.24 9 21 C11.28 21.2 13.56 21.39 15.84 21.59 C18 22 18 22 20 24 C20.19 26.56 20.19 26.56 20 29 C19 30 19 30 16.5 30.1 C13.66 30.07 10.83 30.03 8 30 C8 34.95 8 39.9 8 45 C12.95 45.33 17.9 45.66 23 46 C23 48.31 23 50.62 23 53 C19.38 53.09 15.75 53.14 12.12 53.19 C11.09 53.21 10.06 53.24 9 53.26 C8.01 53.27 7.02 53.28 6.01 53.29 C5.1 53.31 4.19 53.32 3.25 53.34 C2.13 53.17 2.13 53.17 1 53 C-1.19 49.71 -1.23 48.87 -1.14 45.07 C-1.12 44.07 -1.09 43.07 -1.07 42.04 C-1.04 40.96 -1.01 39.88 -0.98 38.77 C-0.95 37.66 -0.93 36.56 -0.9 35.42 C-0.82 31.88 -0.72 28.35 -0.62 24.81 C-0.57 22.42 -0.51 20.02 -0.45 17.63 C-0.31 11.75 -0.16 5.88 0 0 Z " fill="#F2F0EB" transform="translate(557,1007)"/>
<path d="M0 0 C0.33 0.66 0.66 1.32 1 2 C1.66 2 2.32 2 3 2 C3.04 3.67 3.04 5.33 3 7 C2 8 2 8 -0.94 8.1 C-2.73 8.08 -2.73 8.08 -4.56 8.06 C-6.36 8.05 -6.36 8.05 -8.19 8.04 C-9.12 8.02 -10.05 8.01 -11 8 C-11.03 10.31 -11.05 12.62 -11.06 14.94 C-11.07 16.23 -11.09 17.51 -11.1 18.84 C-11.37 21.86 -11.37 21.86 -10 23 C-7.97 23.23 -5.94 23.45 -3.91 23.62 C-2 24 -2 24 0 26 C-0.33 27.65 -0.66 29.3 -1 31 C-4.63 31 -8.26 31 -12 31 C-11.86 33.31 -11.71 35.63 -11.56 37.94 C-11.48 39.23 -11.4 40.51 -11.32 41.84 C-11.35 44.86 -11.35 44.86 -10 46 C-7.19 46.24 -4.38 46.38 -1.57 46.52 C-0.3 46.76 -0.3 46.76 1 47 C3 50 3 50 3 54 C-4.26 54 -11.52 54 -19 54 C-20.8 50.4 -21.25 49.41 -21.24 45.69 C-21.25 44.85 -21.25 44.01 -21.25 43.14 C-21.25 42.24 -21.24 41.34 -21.23 40.41 C-21.23 39.48 -21.23 38.54 -21.23 37.58 C-21.23 35.61 -21.22 33.63 -21.21 31.66 C-21.19 28.64 -21.19 25.63 -21.19 22.62 C-21.18 20.7 -21.17 18.77 -21.17 16.85 C-21.17 15.95 -21.17 15.06 -21.16 14.13 C-21.16 13.29 -21.15 12.44 -21.15 11.56 C-21.14 10.83 -21.14 10.09 -21.13 9.33 C-20.97 6.53 -20.46 3.76 -20 1 C-10.1 0.5 -10.1 0.5 0 0 Z " fill="#F7F5F1" transform="translate(802,1006)"/>
<path d="M0 0 C3.46 -0.06 6.92 -0.09 10.38 -0.12 C11.36 -0.14 12.34 -0.16 13.36 -0.18 C14.77 -0.19 14.77 -0.19 16.21 -0.2 C17.51 -0.21 17.51 -0.21 18.85 -0.23 C21 0 21 0 23 2 C23.12 4.62 23.12 4.62 23 7 C20.24 8.38 17.95 8.1 14.88 8.06 C11.97 8.03 11.97 8.03 9 8 C9 12.29 9 16.58 9 21 C10.65 21.33 12.3 21.66 14 22 C15.67 22.33 17.33 22.67 19 23 C19.33 24.65 19.66 26.3 20 28 C15.8 30.8 13 30.14 8 30 C8.33 35.28 8.66 40.56 9 46 C10.38 45.92 11.76 45.84 13.19 45.75 C16.87 45.73 17.84 45.9 21.06 48 C21.7 48.66 22.34 49.32 23 50 C22.67 50.99 22.34 51.98 22 53 C14.74 53 7.48 53 0 53 C-0.72 49.42 -1.13 46.78 -1.13 43.24 C-1.13 42.33 -1.14 41.41 -1.14 40.47 C-1.14 39.5 -1.13 38.52 -1.13 37.52 C-1.13 36.51 -1.13 35.5 -1.14 34.46 C-1.14 32.33 -1.13 30.21 -1.13 28.08 C-1.13 24.81 -1.13 21.55 -1.14 18.28 C-1.14 16.22 -1.13 14.15 -1.13 12.08 C-1.13 11.1 -1.14 10.12 -1.14 9.11 C-1.14 8.21 -1.13 7.3 -1.13 6.37 C-1.13 5.57 -1.13 4.78 -1.13 3.95 C-1 2 -1 2 0 0 Z " fill="#F4F2EE" transform="translate(474,1007)"/>
<path d="M0 0 C3.06 0.12 3.06 0.12 5.06 1.12 C5.06 15.64 5.06 30.16 5.06 45.12 C9.35 45.45 13.64 45.79 18.06 46.12 C18.39 48.43 18.72 50.74 19.06 53.12 C12.13 53.12 5.2 53.12 -1.94 53.12 C-3.81 49.37 -4.19 48.22 -4.18 44.28 C-4.18 43.32 -4.19 42.37 -4.19 41.38 C-4.18 40.35 -4.18 39.33 -4.17 38.27 C-4.17 37.21 -4.17 36.15 -4.17 35.07 C-4.16 32.83 -4.16 30.6 -4.14 28.37 C-4.13 24.94 -4.12 21.51 -4.12 18.08 C-4.12 15.91 -4.11 13.75 -4.11 11.58 C-4.1 10.55 -4.1 9.52 -4.1 8.45 C-4.1 7.51 -4.09 6.56 -4.08 5.58 C-4.08 4.74 -4.08 3.9 -4.07 3.04 C-3.85 -0.14 -3.24 0.14 0 0 Z " fill="#F5F3EF" transform="translate(619.9375,1006.875)"/>
<path d="M0 0 C1.29 -0.03 2.59 -0.06 3.92 -0.09 C5.78 -0.1 5.78 -0.1 7.68 -0.11 C8.82 -0.13 9.96 -0.14 11.13 -0.16 C14.12 0.31 14.12 0.31 16.59 1.96 C18.12 4.31 18.12 4.31 17.88 7.56 C17.63 8.47 17.38 9.38 17.12 10.31 C12.59 10.34 8.05 10.36 3.51 10.37 C1.96 10.37 0.42 10.38 -1.13 10.39 C-3.34 10.4 -5.56 10.41 -7.78 10.41 C-8.82 10.42 -8.82 10.42 -9.88 10.43 C-11.55 10.43 -13.21 10.37 -14.88 10.31 C-15.88 9.31 -15.88 9.31 -15.97 7.46 C-15.94 5.41 -15.91 3.36 -15.88 1.31 C-11.31 -0.97 -5.01 0.04 0 0 Z " fill="#000000" transform="translate(365.875,665.6875)"/>
<path d="M0 0 C2.13 -0.02 4.26 -0.06 6.39 -0.11 C7.75 -0.12 9.1 -0.12 10.45 -0.13 C11.69 -0.15 12.92 -0.16 14.19 -0.17 C17.27 0.3 17.27 0.3 19.21 2.15 C20.59 4.94 20.22 6.38 19.27 9.3 C17.39 11.17 14.18 10.43 11.68 10.43 C11.02 10.43 10.36 10.43 9.68 10.43 C8.28 10.43 6.89 10.43 5.49 10.43 C3.35 10.42 1.21 10.43 -0.94 10.43 C-2.29 10.43 -3.65 10.43 -5.01 10.43 C-6.25 10.43 -7.49 10.43 -8.76 10.42 C-11.73 10.3 -11.73 10.3 -13.73 9.3 C-13.83 3.14 -13.83 3.14 -13.73 1.3 C-11.1 -1.33 -3.77 0.02 0 0 Z " fill="#000000" transform="translate(1012.72802734375,635.704833984375)"/>
<path d="M0 0 C0.99 0.33 1.98 0.66 3 1 C4.01 3.83 4.83 6.54 5.56 9.44 C5.89 10.66 5.89 10.66 6.22 11.91 C7.7 17.57 8.98 23.24 10 29 C4.39 29 -1.22 29 -7 29 C-6.45 22.13 -5.01 16 -2.94 9.44 C-2.66 8.52 -2.37 7.61 -2.08 6.67 C-1.4 4.44 -0.7 2.22 0 0 Z " fill="#010000" transform="translate(909,637)"/>
<path d="M0 0 C0.99 0.33 1.98 0.66 3 1 C3.97 3.04 3.97 3.04 4.79 5.7 C5.09 6.66 5.39 7.62 5.7 8.62 C6.01 9.63 6.31 10.64 6.62 11.69 C6.94 12.68 7.25 13.68 7.57 14.7 C9.06 19.52 10.17 23.99 11 29 C5.39 29 -0.22 29 -6 29 C-7 27 -7 27 -6.33 24.45 C-5.97 23.4 -5.62 22.34 -5.25 21.25 C-2.99 14.24 -1.43 7.23 0 0 Z " fill="#010100" transform="translate(259,637)"/>
<path d="M0 0 C2.13 -0.01 4.27 -0.04 6.4 -0.07 C7.75 -0.08 9.1 -0.08 10.45 -0.09 C11.69 -0.1 12.92 -0.11 14.19 -0.12 C15.65 0.06 15.65 0.06 17.14 0.24 C19.14 3.24 19.14 3.24 18.77 5.43 C18.56 6.03 18.35 6.62 18.14 7.24 C13.6 7.26 9.06 7.28 4.52 7.3 C2.98 7.3 1.43 7.31 -0.11 7.32 C-2.33 7.33 -4.54 7.33 -6.76 7.34 C-7.8 7.35 -7.8 7.35 -8.87 7.35 C-10.53 7.35 -12.2 7.3 -13.86 7.24 C-14.86 6.24 -14.86 6.24 -14.92 3.68 C-14.9 2.87 -14.88 2.07 -14.86 1.24 C-10.55 -0.92 -4.79 0.01 0 0 Z " fill="#000000" transform="translate(364.8583984375,635.759765625)"/>
<path d="M0 0 C0.59 0.62 1.18 1.24 1.79 1.88 C2.4 2.5 3 3.11 3.62 3.75 C4.98 5.44 4.98 5.44 4.98 7.44 C4.45 7.23 3.91 7.02 3.36 6.81 C-4.73 4 -12.69 3.89 -21.14 3.75 C-22.59 3.72 -24.04 3.69 -25.49 3.65 C-29 3.57 -32.51 3.5 -36.02 3.44 C-36.35 1.79 -36.68 0.14 -37.02 -1.56 C-32.84 -1.73 -28.66 -1.89 -24.48 -2.04 C-23.06 -2.09 -21.63 -2.15 -20.21 -2.21 C-18.17 -2.29 -16.12 -2.36 -14.07 -2.44 C-12.84 -2.48 -11.61 -2.53 -10.34 -2.58 C-6.31 -2.55 -3.24 -2.5 0 0 Z " fill="#DA9837" transform="translate(718.01953125,638.55859375)"/>
<path d="M0 0 C0 1.98 0 3.96 0 6 C-9.57 5.67 -19.14 5.34 -29 5 C-29.33 3.35 -29.66 1.7 -30 0 C-24.67 -5.33 -6.19 -2.38 0 0 Z " fill="#F7F5F1" transform="translate(455,614)"/>
<path d="M0 0 C0.33 0.66 0.66 1.32 1 2 C1.66 2 2.32 2 3 2 C2.67 3.98 2.34 5.96 2 8 C-5.84 8.73 -13.2 9.21 -21 8 C-21 5.69 -21 3.38 -21 1 C-10.61 0.5 -10.61 0.5 0 0 Z " fill="#F7F5F1" transform="translate(937,1006)"/>
<path d="M0 0 C1.17 -0.02 1.17 -0.02 2.37 -0.04 C7.36 -0.05 11.45 0.59 16.19 2.19 C16.52 3.51 16.85 4.83 17.19 6.19 C16.33 6.17 16.33 6.17 15.45 6.15 C6.01 6.05 -3.39 6.64 -12.81 7.19 C-12.81 5.21 -12.81 3.23 -12.81 1.19 C-8.51 -0.02 -4.44 0 0 0 Z " fill="#F8F6F2" transform="translate(762.8125,611.8125)"/>
<path d="M0 0 C0.33 0.66 0.66 1.32 1 2 C1.66 2 2.32 2 3 2 C3 3.65 3 5.3 3 7 C-0.74 8.25 -4.1 7.93 -8 7.62 C-9.22 7.53 -10.43 7.44 -11.69 7.35 C-14.25 7.08 -16.54 6.73 -19 6 C-19.33 4.35 -19.66 2.7 -20 1 C-10.1 0.5 -10.1 0.5 0 0 Z " fill="#F8F6F2" transform="translate(802,1006)"/>
<path d="M0 0 C3.46 -0.03 6.92 -0.05 10.38 -0.06 C11.36 -0.07 12.34 -0.08 13.36 -0.09 C14.77 -0.09 14.77 -0.09 16.21 -0.1 C17.51 -0.11 17.51 -0.11 18.85 -0.11 C21 0 21 0 23 1 C22.67 2.65 22.34 4.3 22 6 C19.27 6.03 16.54 6.05 13.81 6.06 C13.04 6.07 12.27 6.08 11.48 6.09 C7.51 6.1 3.87 5.99 0 5 C0 3.35 0 1.7 0 0 Z " fill="#F7F5F1" transform="translate(557,1007)"/>
<path d="M0 0 C6.93 0 13.86 0 21 0 C21.66 1.32 22.32 2.64 23 4 C19.37 6.42 16.69 6.26 12.5 6.19 C11.82 6.19 11.15 6.19 10.45 6.19 C7.37 6.16 4.94 5.98 2 5 C1.34 5.66 0.68 6.32 0 7 C-1.12 2.25 -1.12 2.25 0 0 Z " fill="#F7F5F1" transform="translate(474,1007)"/>
<path d="M0 0 C0.5 1.49 0.5 1.49 1 3 C-27.38 2.67 -55.76 2.34 -85 2 C-85 1.67 -85 1.34 -85 1 C-75.98 0.87 -66.97 0.74 -57.95 0.61 C-53.77 0.55 -49.58 0.49 -45.39 0.43 C-41.34 0.37 -37.29 0.31 -33.23 0.25 C-31.7 0.23 -30.16 0.21 -28.63 0.19 C-19.09 0.04 -9.55 -0.03 0 0 Z " fill="#C2BFB7" transform="translate(212,617)"/>
<path d="M0 0 C1.98 0.5 1.98 0.5 4 1 C4.06 1.81 4.12 2.62 4.18 3.46 C4.73 10.64 5.32 17.82 6 25 C3.33 26.33 1.83 25.67 -1 25 C-1.16 16.95 -1.16 16.95 -0.5 13.06 C0.21 8.71 0.08 4.4 0 0 Z " fill="#0E0C0A" transform="translate(420,1018)"/>
<path d="M0 0 C2.38 0 2.38 0 5 1 C6.93 4.35 7.97 6.87 8.06 10.75 C6.52 14.02 4.26 14.68 1 16 C-1 14 -1 14 -1.23 11 C-1.22 9.82 -1.2 8.65 -1.19 7.44 C-1.18 5.67 -1.18 5.67 -1.17 3.87 C-1 1 -1 1 0 0 Z " fill="#030201" transform="translate(759,1014)"/>
<path d="M0 0 C0.99 0 1.98 0 3 0 C3.67 8 4.33 16 5 24 C4.34 24.33 3.68 24.66 3 25 C0.38 24.06 0.38 24.06 -2 23 C-1.43 15.32 -0.81 7.66 0 0 Z " fill="#0C0A08" transform="translate(596,1019)"/>
<path d="M0 0 C2.44 0.25 2.44 0.25 5 1 C7.14 4.2 7.23 5.02 7.12 8.69 C7.11 9.5 7.09 10.3 7.07 11.14 C7.04 12.06 7.04 12.06 7 13 C5.02 13.99 3.04 14.98 1 16 C-1 14 -1 14 -1.23 11 C-1.22 9.82 -1.2 8.65 -1.19 7.44 C-1.18 5.67 -1.18 5.67 -1.17 3.87 C-1 1 -1 1 0 0 Z " fill="#000000" transform="translate(451,1014)"/>
<path d="M0 0 C2.39 -0.13 2.39 -0.13 5 0 C7.48 2.82 7.98 4.84 8.5 8.56 C8 12 8 12 5.5 14.44 C4.26 15.21 4.26 15.21 3 16 C2.01 15.34 1.02 14.68 0 14 C-0.29 10.74 -0.29 10.74 -0.19 6.88 C-0.16 5.59 -0.13 4.31 -0.11 2.99 C-0.07 2 -0.04 1.02 0 0 Z " fill="#000000" transform="translate(893,1014)"/>
<path d="M0 0 C0.66 0 1.32 0 2 0 C2.51 2.9 3 5.79 3.5 8.69 C3.64 9.5 3.79 10.32 3.93 11.16 C4.61 15.15 5.2 18.94 5 23 C3 23.04 1 23.04 -1 23 C-1.33 22.67 -1.66 22.34 -2 22 C-1.93 20.37 -1.79 18.75 -1.62 17.12 C-1.53 16.14 -1.43 15.16 -1.32 14.14 C-1.22 13.11 -1.11 12.07 -1 11 C-0.81 8.94 -0.62 6.88 -0.44 4.81 C-0.29 3.21 -0.15 1.6 0 0 Z " fill="#0F0C09" transform="translate(729,1020)"/>
<path d="M0 0 C2.68 0.07 2.68 0.07 4.68 1.07 C4.68 1.73 4.68 2.39 4.68 3.07 C-21.06 2.74 -46.8 2.41 -73.32 2.07 C-73.32 1.74 -73.32 1.41 -73.32 1.07 C-64.3 0.94 -55.27 0.81 -46.25 0.68 C-42.06 0.62 -37.87 0.56 -33.68 0.5 C-29.63 0.44 -25.59 0.38 -21.54 0.32 C-20 0.3 -18.46 0.28 -16.92 0.25 C-14.75 0.22 -12.59 0.19 -10.43 0.16 C-9.2 0.14 -7.97 0.12 -6.7 0.11 C-4.47 0.08 -2.23 0.05 0 0 Z " fill="#C2BFB7" transform="translate(1150.3191833496094,616.9317626953125)"/>
<path d="M0 0 C0.66 0 1.32 0 2 0 C3.53 6.34 4.48 12.5 5 19 C3 19.04 1 19.04 -1 19 C-1.33 18.67 -1.66 18.34 -2 18 C-1.94 15.91 -1.8 13.83 -1.62 11.75 C-1.53 10.61 -1.44 9.47 -1.35 8.3 C-1.05 5.47 -0.61 2.77 0 0 Z " fill="#070604" transform="translate(864,1024)"/>
<path d="M0 0 C1.62 -0.05 3.25 -0.09 4.88 -0.12 C5.78 -0.15 6.68 -0.17 7.62 -0.2 C10 0 10 0 12 2 C12 3.65 12 5.3 12 7 C7.71 7 3.42 7 -1 7 C-0.67 4.69 -0.34 2.38 0 0 Z " fill="#E8E4DE" transform="translate(417,1007)"/>
<path d="M0 0 C1.62 -0.05 3.25 -0.09 4.88 -0.12 C5.78 -0.15 6.68 -0.17 7.62 -0.2 C10 0 10 0 12 2 C12 3.65 12 5.3 12 7 C7.71 7 3.42 7 -1 7 C-0.67 4.69 -0.34 2.38 0 0 Z " fill="#E9E5DF" transform="translate(592,1007)"/>
<path d="M0 0 C3.82 -0.56 4.96 -0.03 8.19 2.25 C11 5 11 5 13 9 C9.04 9 5.08 9 1 9 C-1.12 3.38 -1.12 3.38 0 0 Z " fill="#050403" transform="translate(544,667)"/>
<path d="M0 0 C1.03 -0.02 1.03 -0.02 2.08 -0.04 C5.67 -0.05 8.26 0.23 11.31 2.19 C8.39 3.65 5.46 3.33 2.25 3.31 C1.52 3.31 0.8 3.31 0.05 3.31 C-10.87 3.23 -21.78 2.68 -32.69 2.19 C-32.69 1.86 -32.69 1.53 -32.69 1.19 C-10.8 0.1 -10.8 0.1 0 0 Z " fill="#C2BFB7" transform="translate(921.6875,616.8125)"/>
<path d="M0 0 C0 0.66 0 1.32 0 2 C-15.84 1.67 -31.68 1.34 -48 1 C-48 0.67 -48 0.34 -48 0 C-42.29 -0.17 -36.58 -0.33 -30.87 -0.48 C-28.93 -0.54 -26.99 -0.59 -25.05 -0.65 C-22.25 -0.73 -19.45 -0.81 -16.65 -0.88 C-15.79 -0.91 -14.93 -0.93 -14.04 -0.96 C-9.22 -1.08 -4.75 -0.83 0 0 Z " fill="#C2BFB7" transform="translate(1155,682)"/>
<path d="M0 0 C3.38 -0.12 3.38 -0.12 7 0 C7.66 0.66 8.32 1.32 9 2 C8.62 4.62 8.62 4.62 8 7 C5.69 7 3.38 7 1 7 C0.67 4.69 0.34 2.38 0 0 Z " fill="#E6E4DE" transform="translate(377,1007)"/>
<path d="M0 0 C1.17 -0.03 1.17 -0.03 2.37 -0.06 C4.83 0.18 6.43 0.93 8.55 2.16 C5.53 3.67 2.45 3.16 -0.86 3.04 C-1.59 3.01 -2.32 2.99 -3.07 2.96 C-5.4 2.89 -7.74 2.8 -10.07 2.72 C-11.65 2.67 -13.23 2.61 -14.81 2.56 C-18.69 2.43 -22.57 2.3 -26.45 2.16 C-26.45 1.83 -26.45 1.5 -26.45 1.16 C-23.15 0.99 -19.86 0.82 -16.57 0.66 C-15.19 0.58 -15.19 0.58 -13.79 0.51 C-9.19 0.29 -4.6 0.09 0 0 Z " fill="#C2BFB7" transform="translate(722.4453125,616.84375)"/>
<path d="M0 0 C1.62 -0.03 3.25 -0.05 4.88 -0.06 C5.78 -0.07 6.68 -0.09 7.62 -0.1 C10 0 10 0 12 1 C11.67 2.32 11.34 3.64 11 5 C7.04 5 3.08 5 -1 5 C-0.67 3.35 -0.34 1.7 0 0 Z " fill="#F5F3EF" transform="translate(538,1007)"/>
<path d="M0 0 C0.33 0.99 0.66 1.98 1 3 C-8.04 3.17 -16.99 2.63 -26 2 C-26 1.67 -26 1.34 -26 1 C-17.31 0.28 -8.72 -0.14 0 0 Z " fill="#BEBBB3" transform="translate(850,617)"/>
<path d="M0 0 C0.33 0.99 0.66 1.98 1 3 C-8.57 2.67 -18.14 2.34 -28 2 C-28 1.67 -28 1.34 -28 1 C-9.18 -0.15 -9.18 -0.15 0 0 Z " fill="#BFBCB3" transform="translate(779,617)"/>
<path d="M0 0 C0.66 0 1.32 0 2 0 C2.33 7.26 2.66 14.52 3 22 C2.67 21.01 2.34 20.02 2 19 C1.34 19 0.68 19 0 19 C0 12.73 0 6.46 0 0 Z " fill="#2D2419" transform="translate(711,1024)"/>
<path d="M0 0 C0 0.66 0 1.32 0 2 C-2.76 2.92 -4.2 3.1 -7.01 3.02 C-7.81 3 -8.61 2.98 -9.44 2.96 C-10.3 2.93 -11.16 2.91 -12.04 2.88 C-12.93 2.86 -13.81 2.83 -14.72 2.81 C-17.54 2.73 -20.37 2.65 -23.19 2.56 C-25.1 2.51 -27.01 2.46 -28.93 2.4 C-33.62 2.28 -38.31 2.14 -43 2 C-43 1.67 -43 1.34 -43 1 C-37.36 0.86 -31.72 0.71 -26.07 0.57 C-24.16 0.52 -22.24 0.48 -20.32 0.43 C-17.56 0.36 -14.8 0.29 -12.04 0.22 C-10.75 0.19 -10.75 0.19 -9.44 0.15 C-8.64 0.13 -7.84 0.11 -7.01 0.09 C-5.96 0.07 -5.96 0.07 -4.88 0.04 C-3.25 0.01 -1.63 0 0 0 Z " fill="#C2BFB7" transform="translate(504,681)"/>
<path d="M0 0 C0.33 0.99 0.66 1.98 1 3 C-12.86 2.5 -12.86 2.5 -27 2 C-27 1.67 -27 1.34 -27 1 C-23.81 0.83 -20.63 0.66 -17.44 0.5 C-16.54 0.45 -15.65 0.4 -14.72 0.36 C-9.81 0.1 -4.92 -0.05 0 0 Z " fill="#C2BFB7" transform="translate(454,617)"/>
<path d="M0 0 C1.79 0.02 1.79 0.02 3.62 0.04 C5.42 0.05 5.42 0.05 7.25 0.06 C8.18 0.07 9.1 0.09 10.06 0.1 C10.39 1.09 10.72 2.08 11.06 3.1 C8.93 3.15 6.81 3.19 4.68 3.22 C2.91 3.26 2.91 3.26 1.1 3.29 C-1.94 3.1 -1.94 3.1 -3.94 1.1 C-2.94 0.1 -2.94 0.1 0 0 Z " fill="#BDBAB2" transform="translate(201.94140625,616.90234375)"/>
<path d="M0 0 C0.33 0.66 0.66 1.32 1 2 C3.64 2 6.28 2 9 2 C9 3.32 9 4.64 9 6 C6.36 6 3.72 6 1 6 C0.67 4.02 0.34 2.04 0 0 Z " fill="#F8F6F2" transform="translate(441,1054)"/>
<path d="M0 0 C1.11 0.25 1.11 0.25 2.25 0.5 C8.35 1.31 15.1 1.97 21 0 C20.67 1.32 20.34 2.64 20 4 C5.22 4.18 5.22 4.18 -1 3 C-0.67 2.01 -0.34 1.02 0 0 Z " fill="#BCB9B1" transform="translate(476,1011)"/>
<path d="M0 0 C0.33 0.66 0.66 1.32 1 2 C3.64 2 6.28 2 9 2 C8.67 3.32 8.34 4.64 8 6 C5.12 6.12 5.12 6.12 2 6 C1.34 5.34 0.68 4.68 0 4 C0 2.68 0 1.36 0 0 Z " fill="#F8F6F2" transform="translate(377,1054)"/>
<path d="M0 0 C3.3 0 6.6 0 10 0 C10.33 0.99 10.66 1.98 11 3 C7.04 3 3.08 3 -1 3 C-0.67 2.01 -0.34 1.02 0 0 Z " fill="#BCB9B1" transform="translate(539,1011)"/>
<path d="M0 0 C1.27 0.48 1.27 0.48 2.57 0.96 C6.09 2.03 9.21 2.4 12.88 2.62 C14.6 2.74 14.6 2.74 16.37 2.85 C17.67 2.93 17.67 2.93 19 3 C19 3.33 19 3.66 19 4 C15.7 4 12.4 4 9 4 C8.67 4.66 8.34 5.32 8 6 C8 5.34 8 4.68 8 4 C5.03 4 2.06 4 -1 4 C-0.67 2.68 -0.34 1.36 0 0 Z " fill="#C5C2BA" transform="translate(782,1010)"/>
<path d="M0 0 C2.48 0.5 2.48 0.5 5 1 C4.34 1.66 3.68 2.32 3 3 C2.98 5.45 2.98 5.45 3.38 8.12 C3.49 9.04 3.6 9.95 3.71 10.88 C3.85 11.93 3.85 11.93 4 13 C3.01 12.67 2.02 12.34 1 12 C-0.62 8.32 -0.07 3.93 0 0 Z " fill="#BEBAB1" transform="translate(520,1012)"/>
<path d="M0 0 C0.84 0.15 1.68 0.31 2.54 0.46 C6.16 1.02 9.72 1.32 13.38 1.56 C14.62 1.65 15.87 1.73 17.15 1.82 C18.09 1.88 19.03 1.94 20 2 C20 2.33 20 2.66 20 3 C17.63 3.2 15.25 3.38 12.88 3.56 C12.21 3.62 11.54 3.67 10.86 3.73 C6.73 4.04 3.05 3.85 -1 3 C-0.67 2.01 -0.34 1.02 0 0 Z " fill="#BBB8B0" transform="translate(559,1011)"/>
<path d="M0 0 C0.93 0.14 1.86 0.29 2.81 0.44 C7.85 1.16 12.93 1.57 18 2 C18 2.33 18 2.66 18 3 C11.44 3.78 5.53 4.11 -1 3 C-0.67 2.01 -0.34 1.02 0 0 Z " fill="#C2BFB7" transform="translate(918,1011)"/>
<path d="M0 0 C2.68 4.02 2.16 6.24 2 11 C1.01 11 0.02 11 -1 11 C-1.12 3.38 -1.12 3.38 0 0 Z " fill="#C6C3BB" transform="translate(557,1046)"/>
</svg>
